<svg width="105.83mm" height="26.159mm" version="1.1" viewBox="0 0 105.83463 26.159491" xmlns="http://www.w3.org/2000/svg">
  <g transform="matrix(3.433 0 0 3.433 -84.302 -353.18)">
    <path d="m29.977 110.5q-0.62442 0-1.1112-0.26458-0.48683-0.27517-0.8255-0.71967-0.32808-0.4445-0.508-1.016-0.16933-0.5715-0.16933-1.1748 0-0.77258 0.3175-1.5558 0.32808-0.79375 0.89958-1.4288 0.5715-0.64558 1.3547-1.0478 0.78317-0.41275 1.7145-0.41275 0.96308 0 1.5346 0.45509 0.58208 0.45508 0.762 1.1853l-0.66675 0.35983q-0.09525-0.37041-0.28575-0.62441-0.17992-0.254-0.42333-0.41275-0.24342-0.15875-0.52917-0.22225-0.28575-0.0741-0.5715-0.0741-0.74083 0-1.3652 0.34925-0.61383 0.33867-1.0583 0.889-0.4445 0.53975-0.6985 1.2065-0.24342 0.66675-0.24342 1.3018 0 0.51858 0.13758 0.98425 0.14817 0.45508 0.41275 0.80433t0.64558 0.55034q0.381 0.20108 0.85725 0.20108 0.29633 0 0.62442-0.0741 0.33867-0.0847 0.66675-0.254 0.32808-0.17992 0.635-0.43392 0.30692-0.26458 0.55033-0.635l0.55033 0.3175q-0.26458 0.42333-0.64558 0.75142-0.37042 0.3175-0.80433 0.53975-0.43392 0.22225-0.889 0.33866-0.45508 0.11642-0.86783 0.11642z" fill="#1eb5de"/>
    <path d="m43.621 110.49q-0.65617 0-1.1112-0.1905-0.45508-0.20108-0.73025-0.53975t-0.40217-0.78317q-0.11642-0.45508-0.11642-0.97366 0-0.60325 0.14817-1.2912l0.80433-3.7888h0.73025l-0.80433 3.7888q-0.0635 0.30692-0.10583 0.60325-0.03175 0.28575-0.03175 0.56092 0 0.41275 0.08467 0.77258 0.09525 0.34925 0.29633 0.61383 0.21167 0.254 0.53975 0.41275 0.33867 0.14817 0.8255 0.14817 0.66675 0 1.1642-0.26458 0.508-0.27517 0.85725-0.70909 0.35983-0.4445 0.58208-1.0054 0.22225-0.56092 0.33867-1.1324l0.80433-3.7888h0.73025l-0.79375 3.7888q-0.15875 0.762-0.46567 1.4499-0.30692 0.68791-0.78317 1.2065-0.46567 0.508-1.1007 0.81491-0.635 0.30692-1.4605 0.30692z" fill="#1eb5de"/>
    <path d="m51.035 106.73-1.9262-3.81h0.83608l1.8944 3.81-3.4078 3.7042h-0.83608z" fill="#ffda34"/>
    <g fill="#1eb5de">
      <path d="m51.565 106.2 3.0057-3.2808h0.81492l-3.5454 3.81z"/>
      <path d="m51.84 106.73 1.8627 3.7042h-0.81492l-1.5558-3.175z"/>
      <path d="m35.81 102.92-1.0072 4.1501-0.75499 3.3926h0.73019l0.72502-3.409h2.1351l1.3159 3.3801h0.83561l-1.3203-3.3827c0.34097-0.13609 0.49519-0.21346 0.73794-0.38809 0.24306-0.17485 0.41682-0.30603 0.67748-0.54674 0.1905-0.21 0.34238-0.44181 0.45527-0.69505 0.11289-0.25941 0.16898-0.52196 0.16898-0.78754 0-0.21618-0.03866-0.42612-0.11627-0.62994-0.07761-0.21-0.18703-0.39545-0.32815-0.55604-0.14111-0.16059-0.3175-0.28717-0.52917-0.37982-0.21167-0.0988-0.44794-0.14779-0.709-0.14779zm0.59273 0.57412h2.2438c0.16228 0 0.31036 0.0339 0.44442 0.1018 0.14111 0.0618 0.25761 0.14824 0.34933 0.25942 0.09878 0.11118 0.17282 0.24088 0.22221 0.38912 0.05645 0.14206 0.08475 0.29677 0.08475 0.46354 0 0.21618-0.04626 0.43236-0.13798 0.64854-0.09172 0.21-0.21858 0.40118-0.38086 0.57412-0.15522 0.16677-0.34197 0.30273-0.56069 0.40773-0.21167 0.105-0.43759 0.15761-0.67748 0.15761h-2.3177z"/>
    </g>
    <path d="m24.725 106.4h26.841l-0.16839 0.66h-26.841z" fill="#ffda34"/>
  </g>
</svg>
