<?xml version="1.0" encoding="UTF-8" standalone="no"?>
<!-- Created with Inkscape (http://www.inkscape.org/) -->

<svg
   xmlns:dc="http://purl.org/dc/elements/1.1/"
   xmlns:cc="http://creativecommons.org/ns#"
   xmlns:rdf="http://www.w3.org/1999/02/22-rdf-syntax-ns#"
   xmlns:svg="http://www.w3.org/2000/svg"
   xmlns="http://www.w3.org/2000/svg"
   xmlns:sodipodi="http://sodipodi.sourceforge.net/DTD/sodipodi-0.dtd"
   xmlns:inkscape="http://www.inkscape.org/namespaces/inkscape"
   width="210mm"
   height="297mm"
   viewBox="0 0 210 297"
   version="1.1"
   id="svg8"
   inkscape:version="0.92.1 r15371"
   sodipodi:docname="crux-logo.svg">
  <defs
     id="defs2" />
  <sodipodi:namedview
     id="base"
     pagecolor="#ffffff"
     bordercolor="#666666"
     borderopacity="1.0"
     inkscape:pageopacity="0.0"
     inkscape:pageshadow="2"
     inkscape:zoom="5.6568543"
     inkscape:cx="-87.766939"
     inkscape:cy="1001.0089"
     inkscape:document-units="mm"
     inkscape:current-layer="layer1"
     showgrid="false"
     inkscape:measure-start="106.066,1011.25"
     inkscape:measure-end="106.066,1003.38"
     showguides="true"
     inkscape:guide-bbox="true"
     inkscape:window-width="1920"
     inkscape:window-height="1027"
     inkscape:window-x="-8"
     inkscape:window-y="-8"
     inkscape:window-maximized="1" />
  <metadata
     id="metadata5">
    <rdf:RDF>
      <cc:Work
         rdf:about="">
        <dc:format>image/svg+xml</dc:format>
        <dc:type
           rdf:resource="http://purl.org/dc/dcmitype/StillImage" />
        <dc:title></dc:title>
      </cc:Work>
    </rdf:RDF>
  </metadata>
  <g
     inkscape:label="Layer 1"
     inkscape:groupmode="layer"
     id="layer1">
    <text
       id="text4491"
       y="13.427032"
       x="3.2072346"
       style="font-style:normal;font-weight:normal;font-size:10.58333302px;line-height:125%;font-family:sans-serif;letter-spacing:0px;word-spacing:0px;fill:#000000;fill-opacity:1;stroke:none;stroke-width:0.26458332px;stroke-linecap:butt;stroke-linejoin:miter;stroke-opacity:1"
       xml:space="preserve"><tspan
         style="font-style:normal;font-variant:normal;font-weight:normal;font-stretch:normal;font-family:Raleway;-inkscape-font-specification:Raleway;stroke-width:0.26458332px"
         y="13.427032"
         x="3.2072346"
         id="tspan4489"
         sodipodi:role="line">CRUX</tspan></text>
    <text
       xml:space="preserve"
       style="font-style:normal;font-weight:normal;font-size:10.58333302px;line-height:125%;font-family:sans-serif;letter-spacing:0px;word-spacing:0px;fill:#000000;fill-opacity:1;stroke:none;stroke-width:0.26458332px;stroke-linecap:butt;stroke-linejoin:miter;stroke-opacity:1"
       x="2.7395132"
       y="23.783728"
       id="text4552"><tspan
         sodipodi:role="line"
         id="tspan4550"
         x="2.7395132"
         y="23.783728"
         style="font-style:italic;font-variant:normal;font-weight:normal;font-stretch:normal;font-family:Raleway;-inkscape-font-specification:'Raleway Italic';stroke-width:0.26458332px">CRUX</tspan></text>
    <path
       d="m 58.791657,29.406123 -1.926167,-3.81 h 0.836084 l 1.61925,3.280833 3.005666,-3.280833 h 0.814917 l -3.545417,3.81 1.862667,3.704166 H 60.64374 l -1.55575,-3.175 -2.899833,3.175 h -0.836083 z"
       style="font-style:italic;font-variant:normal;font-weight:normal;font-stretch:normal;font-size:medium;line-height:125%;font-family:Raleway;-inkscape-font-specification:'Raleway Italic';letter-spacing:0px;word-spacing:0px;fill:#000000;fill-opacity:1;stroke:none;stroke-width:0.26458332px;stroke-linecap:butt;stroke-linejoin:miter;stroke-opacity:1"
       id="path4584"
       inkscape:connector-curvature="0" />
    <path
       inkscape:connector-curvature="0"
       id="path4586"
       style="font-style:italic;font-variant:normal;font-weight:normal;font-stretch:normal;font-size:medium;line-height:125%;font-family:Raleway;-inkscape-font-specification:'Raleway Italic';letter-spacing:0px;word-spacing:0px;fill:#000000;fill-opacity:1;stroke:none;stroke-width:0.26458332px;stroke-linecap:butt;stroke-linejoin:miter;stroke-opacity:1"
       d="m 47.679157,29.769925 -1.926167,-3.81 h 0.836084 l 1.61925,3.280833 3.005666,-3.280833 h 0.814917 l -3.545417,3.81 1.862667,3.704166 H 49.53124 l -1.55575,-3.175 -2.899833,3.175 h -0.836083 z" />
    <path
       d="m 21.92445,33.239935 q -0.624416,0 -1.11125,-0.264583 -0.486833,-0.275167 -0.8255,-0.719667 -0.328083,-0.4445 -0.508,-1.016 -0.169333,-0.5715 -0.169333,-1.17475 0,-0.772583 0.3175,-1.55575 0.328083,-0.79375 0.899583,-1.42875 0.5715,-0.645583 1.354667,-1.04775 0.783166,-0.41275 1.7145,-0.41275 0.963083,0 1.534583,0.455084 0.582083,0.455083 0.762,1.185333 l -0.66675,0.359833 q -0.09525,-0.370416 -0.28575,-0.624416 -0.179917,-0.254 -0.423333,-0.41275 -0.243417,-0.15875 -0.529167,-0.22225 -0.28575,-0.07408 -0.5715,-0.07408 -0.740833,0 -1.36525,0.34925 -0.613833,0.338667 -1.058333,0.889 -0.4445,0.53975 -0.6985,1.2065 -0.243417,0.66675 -0.243417,1.30175 0,0.518584 0.137584,0.98425 0.148166,0.455083 0.41275,0.804333 0.264583,0.34925 0.645583,0.550334 0.381,0.201083 0.85725,0.201083 0.296333,0 0.624416,-0.07408 0.338667,-0.08467 0.66675,-0.254 0.328084,-0.179917 0.635,-0.433917 0.306917,-0.264583 0.550334,-0.635 l 0.550333,0.3175 q -0.264583,0.423333 -0.645583,0.751417 -0.370417,0.3175 -0.804334,0.53975 -0.433916,0.22225 -0.889,0.338666 -0.455083,0.116417 -0.867833,0.116417 z"
       style="font-style:italic;font-variant:normal;font-weight:normal;font-stretch:normal;font-size:medium;line-height:125%;font-family:Raleway;-inkscape-font-specification:'Raleway Italic';letter-spacing:0px;word-spacing:0px;fill:#000000;fill-opacity:1;stroke:none;stroke-width:0.26458332px;stroke-linecap:butt;stroke-linejoin:miter;stroke-opacity:1"
       id="path4588"
       inkscape:connector-curvature="0" />
    <path
       d="m 26.012263,33.176435 1.598083,-7.514166 h 3.01625 q 0.391583,0 0.709083,0.169333 0.3175,0.15875 0.529167,0.433917 0.211667,0.275166 0.328083,0.635 0.116417,0.34925 0.116417,0.719666 0,0.455084 -0.169333,0.899584 -0.169334,0.433916 -0.455084,0.79375 -0.28575,0.359833 -0.677333,0.624416 -0.381,0.254 -0.814917,0.338667 l 1.132417,2.899833 h -0.836083 l -1.0795,-2.772833 h -2.074334 l -0.592666,2.772833 z m 3.77825,-3.429 q 0.359833,0 0.677333,-0.179916 0.328083,-0.179917 0.560917,-0.465667 0.243416,-0.296333 0.381,-0.656167 0.137583,-0.370416 0.137583,-0.740833 0,-0.28575 -0.08467,-0.529167 -0.07408,-0.254 -0.22225,-0.4445 -0.137583,-0.1905 -0.34925,-0.296333 -0.201083,-0.116417 -0.4445,-0.116417 h -2.243663 l -0.73025,3.429 z"
       style="font-style:italic;font-variant:normal;font-weight:normal;font-stretch:normal;font-size:medium;line-height:125%;font-family:Raleway;-inkscape-font-specification:'Raleway Italic';letter-spacing:0px;word-spacing:0px;fill:#000000;fill-opacity:1;stroke:none;stroke-width:0.26458332px;stroke-linecap:butt;stroke-linejoin:miter;stroke-opacity:1"
       id="path4590"
       inkscape:connector-curvature="0" />
    <path
       d="m 35.56802,33.229352 q -0.656167,0 -1.11125,-0.1905 -0.455083,-0.201084 -0.73025,-0.53975 -0.275167,-0.338667 -0.402167,-0.783167 -0.116416,-0.455083 -0.116416,-0.973667 0,-0.603249 0.148166,-1.291166 l 0.804334,-3.788833 h 0.73025 l -0.804334,3.788833 q -0.0635,0.306917 -0.105833,0.60325 -0.03175,0.28575 -0.03175,0.560916 0,0.41275 0.08467,0.772584 0.09525,0.34925 0.296333,0.613833 0.211667,0.254 0.53975,0.41275 0.338667,0.148167 0.8255,0.148167 0.66675,0 1.164166,-0.264584 0.508,-0.275166 0.85725,-0.709083 0.359834,-0.4445 0.582084,-1.005416 0.22225,-0.560917 0.338666,-1.132417 l 0.804334,-3.788833 h 0.73025 l -0.79375,3.788833 q -0.15875,0.762 -0.465667,1.449916 -0.306917,0.687917 -0.783167,1.2065 -0.465666,0.508 -1.100666,0.814917 -0.635,0.306917 -1.4605,0.306917 z"
       style="font-style:italic;font-variant:normal;font-weight:normal;font-stretch:normal;font-size:medium;line-height:125%;font-family:Raleway;-inkscape-font-specification:'Raleway Italic';letter-spacing:0px;word-spacing:0px;fill:#000000;fill-opacity:1;stroke:none;stroke-width:0.26458332px;stroke-linecap:butt;stroke-linejoin:miter;stroke-opacity:1"
       id="path4592"
       inkscape:connector-curvature="0" />
    <path
       sodipodi:nodetypes="ccccccc"
       d="m 42.982803,29.472269 -1.926167,-3.81 h 0.836084 l 1.894416,3.81 -3.407833,3.704166 H 39.54322 Z"
       style="font-style:italic;font-variant:normal;font-weight:normal;font-stretch:normal;font-size:medium;line-height:125%;font-family:Raleway;-inkscape-font-specification:'Raleway Italic';letter-spacing:0px;word-spacing:0px;fill:#000000;fill-opacity:1;stroke:none;stroke-width:0.26458332px;stroke-linecap:butt;stroke-linejoin:miter;stroke-opacity:1"
       id="path4594"
       inkscape:connector-curvature="0" />
    <g
       id="g4689"
       transform="translate(-71.093694,-22.170007)">
      <path
         d="m 32.441637,46.733685 q -0.624416,0 -1.11125,-0.264583 -0.486833,-0.275167 -0.8255,-0.719667 -0.328083,-0.4445 -0.508,-1.016 -0.169333,-0.5715 -0.169333,-1.17475 0,-0.772583 0.3175,-1.55575 0.328083,-0.79375 0.899583,-1.42875 0.5715,-0.645583 1.354667,-1.04775 0.783166,-0.41275 1.7145,-0.41275 0.963083,0 1.534583,0.455084 0.582083,0.455083 0.762,1.185333 l -0.66675,0.359833 q -0.09525,-0.370416 -0.28575,-0.624416 -0.179917,-0.254 -0.423333,-0.41275 -0.243417,-0.15875 -0.529167,-0.22225 -0.28575,-0.07408 -0.5715,-0.07408 -0.740833,0 -1.36525,0.34925 -0.613833,0.338667 -1.058333,0.889 -0.4445,0.53975 -0.6985,1.2065 -0.243417,0.66675 -0.243417,1.30175 0,0.518584 0.137584,0.98425 0.148166,0.455083 0.41275,0.804333 0.264583,0.34925 0.645583,0.550334 0.381,0.201083 0.85725,0.201083 0.296333,0 0.624416,-0.07408 0.338667,-0.08467 0.66675,-0.254 0.328084,-0.179917 0.635,-0.433917 0.306917,-0.264583 0.550334,-0.635 l 0.550333,0.3175 q -0.264583,0.423333 -0.645583,0.751417 -0.370417,0.3175 -0.804334,0.53975 -0.433916,0.22225 -0.889,0.338666 -0.455083,0.116417 -0.867833,0.116417 z"
         style="font-style:italic;font-variant:normal;font-weight:normal;font-stretch:normal;font-size:medium;line-height:125%;font-family:Raleway;-inkscape-font-specification:'Raleway Italic';letter-spacing:0px;word-spacing:0px;fill:#deab1e;fill-opacity:1;stroke:none;stroke-width:0.26458332px;stroke-linecap:butt;stroke-linejoin:miter;stroke-opacity:1"
         id="path4571"
         inkscape:connector-curvature="0" />
      <path
         d="m 46.085207,46.723102 q -0.656167,0 -1.11125,-0.1905 -0.455083,-0.201084 -0.73025,-0.53975 -0.275167,-0.338667 -0.402167,-0.783167 -0.116416,-0.455083 -0.116416,-0.973667 0,-0.603249 0.148166,-1.291166 l 0.804334,-3.788833 h 0.73025 l -0.804334,3.788833 q -0.0635,0.306917 -0.105833,0.60325 -0.03175,0.28575 -0.03175,0.560916 0,0.41275 0.08467,0.772584 0.09525,0.34925 0.296333,0.613833 0.211667,0.254 0.53975,0.41275 0.338667,0.148167 0.8255,0.148167 0.66675,0 1.164166,-0.264584 0.508,-0.275166 0.85725,-0.709083 0.359834,-0.4445 0.582084,-1.005416 0.22225,-0.560917 0.338666,-1.132417 l 0.804334,-3.788833 h 0.73025 l -0.79375,3.788833 q -0.15875,0.762 -0.465667,1.449916 -0.306917,0.687917 -0.783167,1.2065 -0.465666,0.508 -1.100666,0.814917 -0.635,0.306917 -1.4605,0.306917 z"
         style="font-style:italic;font-variant:normal;font-weight:normal;font-stretch:normal;font-size:medium;line-height:125%;font-family:Raleway;-inkscape-font-specification:'Raleway Italic';letter-spacing:0px;word-spacing:0px;fill:#deab1e;fill-opacity:1;stroke:none;stroke-width:0.26458332px;stroke-linecap:butt;stroke-linejoin:miter;stroke-opacity:1"
         id="path4575"
         inkscape:connector-curvature="0" />
      <path
         sodipodi:nodetypes="ccccccc"
         d="m 53.49999,42.966019 -1.926167,-3.81 h 0.836084 l 1.894416,3.81 -3.407833,3.704166 h -0.836083 z"
         style="font-style:italic;font-variant:normal;font-weight:normal;font-stretch:normal;font-size:medium;line-height:125%;font-family:Raleway;-inkscape-font-specification:'Raleway Italic';letter-spacing:0px;word-spacing:0px;fill:#000000;fill-opacity:1;stroke:none;stroke-width:0.26458332px;stroke-linecap:butt;stroke-linejoin:miter;stroke-opacity:1"
         id="path4577"
         inkscape:connector-curvature="0" />
      <path
         sodipodi:nodetypes="ccccc"
         d="m 54.029157,42.436852 3.005666,-3.280833 h 0.814917 l -3.545417,3.81 z"
         style="font-style:italic;font-variant:normal;font-weight:normal;font-stretch:normal;font-size:medium;line-height:125%;font-family:Raleway;-inkscape-font-specification:'Raleway Italic';letter-spacing:0px;word-spacing:0px;fill:#deab1e;fill-opacity:1;stroke:none;stroke-width:0.26458332px;stroke-linecap:butt;stroke-linejoin:miter;stroke-opacity:1"
         id="path4596"
         inkscape:connector-curvature="0" />
      <path
         sodipodi:nodetypes="ccccc"
         d="m 54.304323,42.966019 1.862667,3.704166 h -0.814917 l -1.55575,-3.175 z"
         style="font-style:italic;font-variant:normal;font-weight:normal;font-stretch:normal;font-size:medium;line-height:125%;font-family:Raleway;-inkscape-font-specification:'Raleway Italic';letter-spacing:0px;word-spacing:0px;fill:#deab1e;fill-opacity:1;stroke:none;stroke-width:0.26458332px;stroke-linecap:butt;stroke-linejoin:miter;stroke-opacity:1"
         id="path4598"
         inkscape:connector-curvature="0" />
      <path
         id="path4637"
         transform="scale(0.26458333)"
         d="M 144.66016,147.99219 140.85352,163.67773 138,176.5 h 2.75977 L 143.5,163.67773 h 7.96094 l 0.84179,-0.0176 -0.70898,0.0176 4.94922,12.71289 h 3.1582 l -4.99023,-12.78515 c 1.28869,-0.51436 1.87158,-0.80679 2.78906,-1.4668 0.91867,-0.66086 1.57538,-1.15663 2.56055,-2.0664 0.72,-0.79371 1.29403,-1.66984 1.7207,-2.62696 0.42668,-0.98046 0.63867,-1.97276 0.63867,-2.97656 0,-0.81705 -0.14612,-1.6105 -0.43945,-2.38086 -0.29333,-0.79371 -0.7069,-1.49461 -1.24024,-2.10156 -0.53333,-0.60696 -1.19999,-1.08538 -2,-1.43555 -0.8,-0.37351 -1.69302,-0.55859 -2.67968,-0.55859 z m 2.24023,2.16992 h 8.48047 c 0.61333,0 1.17302,0.12798 1.67969,0.38477 0.53333,0.23344 0.97365,0.56027 1.32031,0.98046 0.37334,0.4202 0.65317,0.91044 0.83984,1.47071 0.21336,0.53692 0.32032,1.12165 0.32032,1.75195 0,0.81705 -0.17483,1.63412 -0.52149,2.45117 -0.34667,0.79371 -0.82612,1.51628 -1.43945,2.16992 -0.58667,0.6303 -1.29248,1.14416 -2.11914,1.54102 -0.8,0.39685 -1.65388,0.5957 -2.56055,0.5957 h -8.75977 z"
         style="font-style:italic;font-variant:normal;font-weight:normal;font-stretch:normal;font-size:medium;line-height:125%;font-family:Raleway;-inkscape-font-specification:'Raleway Italic';letter-spacing:0px;word-spacing:0px;fill:#deab1e;fill-opacity:1;stroke:none;stroke-width:0.93563521px;stroke-linecap:butt;stroke-linejoin:miter;stroke-opacity:1"
         inkscape:connector-curvature="0" />
      <path
         inkscape:connector-curvature="0"
         id="rect4600"
         d="m 27.189757,42.635769 h 26.841466 l -0.168392,0.66 H 27.021365 Z"
         style="opacity:1;fill:#000000;fill-opacity:1;stroke:none;stroke-width:0.96468174;stroke-miterlimit:4;stroke-dasharray:none;stroke-opacity:1" />
    </g>
    <path
       d="m 16.467418,57.44931 q -0.624416,0 -1.11125,-0.264583 -0.486833,-0.275167 -0.8255,-0.719667 -0.328083,-0.4445 -0.508,-1.016 -0.169333,-0.5715 -0.169333,-1.17475 0,-0.772583 0.3175,-1.55575 0.328083,-0.79375 0.899583,-1.42875 0.5715,-0.645583 1.354667,-1.04775 0.783166,-0.41275 1.7145,-0.41275 0.963083,0 1.534583,0.455084 0.582083,0.455083 0.762,1.185333 l -0.66675,0.359833 q -0.09525,-0.370416 -0.28575,-0.624416 -0.179917,-0.254 -0.423333,-0.41275 -0.243417,-0.15875 -0.529167,-0.22225 -0.28575,-0.07408 -0.5715,-0.07408 -0.740833,0 -1.36525,0.34925 -0.613833,0.338667 -1.058333,0.889 -0.4445,0.53975 -0.6985,1.2065 -0.243417,0.66675 -0.243417,1.30175 0,0.518584 0.137584,0.98425 0.148166,0.455083 0.41275,0.804333 0.264583,0.34925 0.645583,0.550334 0.381,0.201083 0.85725,0.201083 0.296333,0 0.624416,-0.07408 0.338667,-0.08467 0.66675,-0.254 0.328084,-0.179917 0.635,-0.433917 0.306917,-0.264583 0.550334,-0.635 l 0.550333,0.3175 q -0.264583,0.423333 -0.645583,0.751417 -0.370417,0.3175 -0.804334,0.53975 -0.433916,0.22225 -0.889,0.338666 -0.455083,0.116417 -0.867833,0.116417 z"
       style="font-style:italic;font-variant:normal;font-weight:normal;font-stretch:normal;font-size:medium;line-height:125%;font-family:Raleway;-inkscape-font-specification:'Raleway Italic';letter-spacing:0px;word-spacing:0px;fill:#deab1e;fill-opacity:1;stroke:none;stroke-width:0.26458332px;stroke-linecap:butt;stroke-linejoin:miter;stroke-opacity:1"
       id="path4603"
       inkscape:connector-curvature="0" />
    <path
       d="m 20.555231,57.38581 1.598083,-7.514166 h 3.01625 q 0.391583,0 0.709083,0.169333 0.3175,0.15875 0.529167,0.433917 0.211667,0.275166 0.328083,0.635 0.116417,0.34925 0.116417,0.719666 0,0.455084 -0.169333,0.899584 -0.169334,0.433916 -0.455084,0.79375 -0.28575,0.359833 -0.677333,0.624416 -0.381,0.254 -0.814917,0.338667 l 1.132417,2.899833 h -0.836083 l -1.0795,-2.772833 h -2.074334 l -0.592666,2.772833 z m 3.77825,-3.429 q 0.359833,0 0.677333,-0.179916 0.328083,-0.179917 0.560917,-0.465667 0.243416,-0.296333 0.381,-0.656167 0.137583,-0.370416 0.137583,-0.740833 0,-0.28575 -0.08467,-0.529167 -0.07408,-0.254 -0.22225,-0.4445 -0.137583,-0.1905 -0.34925,-0.296333 -0.201083,-0.116417 -0.4445,-0.116417 h -2.243663 l -0.73025,3.429 z"
       style="font-style:italic;font-variant:normal;font-weight:normal;font-stretch:normal;font-size:medium;line-height:125%;font-family:Raleway;-inkscape-font-specification:'Raleway Italic';letter-spacing:0px;word-spacing:0px;fill:#deab1e;fill-opacity:1;stroke:none;stroke-width:0.26458332px;stroke-linecap:butt;stroke-linejoin:miter;stroke-opacity:1"
       id="path4605"
       inkscape:connector-curvature="0" />
    <path
       d="m 30.110988,57.438727 q -0.656167,0 -1.11125,-0.1905 -0.455083,-0.201084 -0.73025,-0.53975 -0.275167,-0.338667 -0.402167,-0.783167 -0.116416,-0.455083 -0.116416,-0.973667 0,-0.603249 0.148166,-1.291166 l 0.804334,-3.788833 h 0.73025 l -0.804334,3.788833 q -0.0635,0.306917 -0.105833,0.60325 -0.03175,0.28575 -0.03175,0.560916 0,0.41275 0.08467,0.772584 0.09525,0.34925 0.296333,0.613833 0.211667,0.254 0.53975,0.41275 0.338667,0.148167 0.8255,0.148167 0.66675,0 1.164166,-0.264584 0.508,-0.275166 0.85725,-0.709083 0.359834,-0.4445 0.582084,-1.005416 0.22225,-0.560917 0.338666,-1.132417 l 0.804334,-3.788833 h 0.73025 l -0.79375,3.788833 q -0.15875,0.762 -0.465667,1.449916 -0.306917,0.687917 -0.783167,1.2065 -0.465666,0.508 -1.100666,0.814917 -0.635,0.306917 -1.4605,0.306917 z"
       style="font-style:italic;font-variant:normal;font-weight:normal;font-stretch:normal;font-size:medium;line-height:125%;font-family:Raleway;-inkscape-font-specification:'Raleway Italic';letter-spacing:0px;word-spacing:0px;fill:#deab1e;fill-opacity:1;stroke:none;stroke-width:0.26458332px;stroke-linecap:butt;stroke-linejoin:miter;stroke-opacity:1"
       id="path4607"
       inkscape:connector-curvature="0" />
    <path
       sodipodi:nodetypes="ccccccc"
       d="m 37.525771,53.681644 -1.926167,-3.81 h 0.836084 l 1.894416,3.81 -3.407833,3.704166 h -0.836083 z"
       style="font-style:italic;font-variant:normal;font-weight:normal;font-stretch:normal;font-size:medium;line-height:125%;font-family:Raleway;-inkscape-font-specification:'Raleway Italic';letter-spacing:0px;word-spacing:0px;fill:#000000;fill-opacity:1;stroke:none;stroke-width:0.26458332px;stroke-linecap:butt;stroke-linejoin:miter;stroke-opacity:1"
       id="path4609"
       inkscape:connector-curvature="0" />
    <path
       sodipodi:nodetypes="ccccc"
       d="m 38.054938,53.152477 3.005666,-3.280833 h 0.814917 l -3.545417,3.81 z"
       style="font-style:italic;font-variant:normal;font-weight:normal;font-stretch:normal;font-size:medium;line-height:125%;font-family:Raleway;-inkscape-font-specification:'Raleway Italic';letter-spacing:0px;word-spacing:0px;fill:#deab1e;fill-opacity:1;stroke:none;stroke-width:0.26458332px;stroke-linecap:butt;stroke-linejoin:miter;stroke-opacity:1"
       id="path4611"
       inkscape:connector-curvature="0" />
    <path
       sodipodi:nodetypes="ccccc"
       d="m 38.330104,53.681644 1.862667,3.704166 h -0.814917 l -1.55575,-3.175 z"
       style="font-style:italic;font-variant:normal;font-weight:normal;font-stretch:normal;font-size:medium;line-height:125%;font-family:Raleway;-inkscape-font-specification:'Raleway Italic';letter-spacing:0px;word-spacing:0px;fill:#deab1e;fill-opacity:1;stroke:none;stroke-width:0.26458332px;stroke-linecap:butt;stroke-linejoin:miter;stroke-opacity:1"
       id="path4613"
       inkscape:connector-curvature="0" />
    <path
       inkscape:connector-curvature="0"
       id="path4615"
       d="m 11.215538,53.351394 h 26.841466 l -0.168392,0.66 H 11.047146 Z"
       style="opacity:1;fill:#000000;fill-opacity:1;stroke:none;stroke-width:0.96468174;stroke-miterlimit:4;stroke-dasharray:none;stroke-opacity:1" />
    <path
       inkscape:connector-curvature="0"
       id="path4619"
       style="font-style:italic;font-variant:normal;font-weight:normal;font-stretch:normal;font-size:medium;line-height:125%;font-family:Raleway;-inkscape-font-specification:'Raleway Italic';letter-spacing:0px;word-spacing:0px;fill:#000000;fill-opacity:1;stroke:none;stroke-width:0.26458332px;stroke-linecap:butt;stroke-linejoin:miter;stroke-opacity:1"
       d="m 24.310575,38.799206 1.007935,-4.741333 h 3.01625 c 0.261055,0 0.497416,0.05644 0.709083,0.169333 0.211667,0.105833 0.388056,0.250472 0.529167,0.433917 0.141111,0.183444 0.250472,0.395111 0.328083,0.635 0.07761,0.232833 0.116417,0.472722 0.116417,0.719666 0,0.303389 -0.05644,0.603251 -0.169333,0.899584 -0.112889,0.289277 -0.264584,0.553861 -0.455084,0.79375 -0.1905,0.239889 -0.416278,0.448027 -0.677333,0.624416 -0.254,0.169333 -0.525639,0.282222 -0.814917,0.338667 -0.212368,0.08711 -0.488349,0.134389 -0.783166,0.127 h -2.074334 z m 3.188102,-0.656167 c 0.239889,0 0.465666,-0.05997 0.677333,-0.179916 0.218722,-0.119945 0.405694,-0.275167 0.560917,-0.465667 0.162277,-0.197555 0.289277,-0.416278 0.381,-0.656167 0.09172,-0.246944 0.137583,-0.493888 0.137583,-0.740833 0,-0.1905 -0.02822,-0.366889 -0.08467,-0.529167 -0.04939,-0.169333 -0.12347,-0.3175 -0.22225,-0.4445 -0.09172,-0.127 -0.208139,-0.225778 -0.34925,-0.296333 -0.134055,-0.07761 -0.282222,-0.116417 -0.4445,-0.116417 h -2.243663 l -0.73025,3.429 z"
       sodipodi:nodetypes="ccscccscccccccscccscccsccs" />
    <path
       d="m 9.4096589,33.540237 1.5980831,-7.514166 h 3.01625 q 0.391583,0 0.709083,0.169333 0.3175,0.15875 0.529167,0.433917 0.211667,0.275166 0.328083,0.635 0.116417,0.34925 0.116417,0.719666 0,0.455084 -0.169333,0.899584 -0.169334,0.433916 -0.455084,0.79375 -0.28575,0.359833 -0.677333,0.624416 -0.381,0.254 -0.814917,0.338667 l 1.132417,2.899833 h -0.836083 l -1.0795,-2.772833 h -2.074334 l -0.592666,2.772833 z m 3.7782501,-3.429 q 0.359833,0 0.677333,-0.179916 0.328083,-0.179917 0.560917,-0.465667 0.243416,-0.296333 0.381,-0.656167 0.137583,-0.370416 0.137583,-0.740833 0,-0.28575 -0.08467,-0.529167 -0.07408,-0.254 -0.22225,-0.4445 -0.137583,-0.1905 -0.34925,-0.296333 -0.201083,-0.116417 -0.4445,-0.116417 h -2.243663 l -0.73025,3.429 z"
       style="font-style:italic;font-variant:normal;font-weight:normal;font-stretch:normal;font-size:medium;line-height:125%;font-family:Raleway;-inkscape-font-specification:'Raleway Italic';letter-spacing:0px;word-spacing:0px;fill:#000000;fill-opacity:1;stroke:none;stroke-width:0.26458332px;stroke-linecap:butt;stroke-linejoin:miter;stroke-opacity:1"
       id="path4641"
       inkscape:connector-curvature="0" />
    <path
       inkscape:connector-curvature="0"
       id="path4643"
       style="font-style:italic;font-variant:normal;font-weight:normal;font-stretch:normal;font-size:medium;line-height:125%;font-family:Raleway;-inkscape-font-specification:'Raleway Italic';letter-spacing:0px;word-spacing:0px;fill:#deab1e;fill-opacity:1;stroke:none;stroke-width:0.26458332px;stroke-linecap:butt;stroke-linejoin:miter;stroke-opacity:1"
       d="m 2.1336169,33.044143 1.598083,-7.514166 h 3.01625 c 0.261055,0 0.497416,0.05644 0.709083,0.169333 0.211667,0.105833 0.388056,0.250472 0.529167,0.433917 0.141111,0.183444 0.250472,0.395111 0.328083,0.635 0.07761,0.232833 0.116417,0.472722 0.116417,0.719666 0,0.303389 -0.05644,0.603251 -0.169333,0.899584 -0.112889,0.289277 -0.264584,0.553861 -0.455084,0.79375 -0.1905,0.239889 -0.357813,0.202473 -0.618868,0.378862 -0.254,0.169333 -0.773531,0.0427 -1.062809,0.09915 l 1.321844,3.384907 h -0.836083 l -1.309474,-3.363551 -1.711902,-0.029 -0.725124,3.392548 z m 3.588823,-3.914074 c 0.233892,-0.05331 0.655093,0.425104 0.86676,0.305158 0.218722,-0.119945 0.405694,-0.275167 0.560917,-0.465667 0.162277,-0.197555 0.289277,-0.416278 0.381,-0.656167 0.09172,-0.246944 0.137583,-0.493888 0.137583,-0.740833 0,-0.1905 -0.02822,-0.366889 -0.08467,-0.529167 -0.04939,-0.169333 -0.12347,-0.3175 -0.22225,-0.4445 -0.09172,-0.127 -0.208139,-0.225778 -0.34925,-0.296333 -0.134055,-0.07761 -0.282222,-0.116417 -0.4445,-0.116417 h -2.243663 l -0.73025,3.429 z"
       sodipodi:nodetypes="ccscccsccccccccccscccscccsccs" />
    <path
       inkscape:connector-curvature="0"
       id="path4647"
       style="font-style:italic;font-variant:normal;font-weight:normal;font-stretch:normal;font-size:medium;line-height:125%;font-family:Raleway;-inkscape-font-specification:'Raleway Italic';letter-spacing:0px;word-spacing:0px;fill:#deab1e;fill-opacity:1;stroke:none;stroke-width:0.26458332px;stroke-linecap:butt;stroke-linejoin:miter;stroke-opacity:1"
       d="M 2.067637,36.034668 1.342513,39.427216 H 0.61226303 L 1.367259,36.034668 Z m 2.535615,0.0076 1.321844,3.384907 H 5.089013 L 3.779539,36.063624 Z"
       sodipodi:nodetypes="cccccccccc" />
    <path
       sodipodi:nodetypes="cccscccscczcscccscccsccs"
       d="m 5.1511403,45.172028 h -2.806505 l 1.007338,-4.741333 h 3.01625 c 0.261055,0 0.497416,0.05644 0.709083,0.169333 0.211667,0.105833 0.388056,0.250472 0.529167,0.433917 0.141111,0.183444 0.250472,0.395111 0.328083,0.635 0.07761,0.232833 0.116417,0.472722 0.116417,0.719666 0,0.303389 -0.05644,0.603251 -0.169333,0.899584 -0.112889,0.289277 -0.264584,0.553861 -0.455084,0.79375 -0.260658,0.274968 -0.434267,0.424677 -0.677333,0.624416 -0.243066,0.199739 -0.397394,0.288475 -0.739291,0.444311 m -0.477792,-0.634811 c 0.239889,0 0.465666,-0.05997 0.677333,-0.179916 0.218722,-0.119945 0.405694,-0.275167 0.560917,-0.465667 0.162277,-0.197555 0.289277,-0.416278 0.381,-0.656167 0.09172,-0.246944 0.137583,-0.493888 0.137583,-0.740833 0,-0.1905 -0.02822,-0.366889 -0.08467,-0.529167 -0.04939,-0.169333 -0.12347,-0.3175 -0.22225,-0.4445 -0.09172,-0.127 -0.208139,-0.225778 -0.34925,-0.296333 -0.134055,-0.07761 -0.282222,-0.116417 -0.4445,-0.116417 h -2.243663 l -0.73025,3.429 z"
       style="font-style:italic;font-variant:normal;font-weight:normal;font-stretch:normal;font-size:medium;line-height:125%;font-family:Raleway;-inkscape-font-specification:'Raleway Italic';letter-spacing:0px;word-spacing:0px;fill:#000000;fill-opacity:1;stroke:none;stroke-width:0.26458332px;stroke-linecap:butt;stroke-linejoin:miter;stroke-opacity:1"
       id="path4655"
       inkscape:connector-curvature="0" />
    <path
       id="path4657"
       d="m 3.0450133,45.172028 -0.725124,3.392548 h -0.73025 l 0.754996,-3.392548 z"
       style="font-style:italic;font-variant:normal;font-weight:normal;font-stretch:normal;font-size:medium;line-height:125%;font-family:Raleway;-inkscape-font-specification:'Raleway Italic';letter-spacing:0px;word-spacing:0px;fill:#deab1e;fill-opacity:1;stroke:none;stroke-width:0.26458332px;stroke-linecap:butt;stroke-linejoin:miter;stroke-opacity:1"
       inkscape:connector-curvature="0" />
    <path
       inkscape:connector-curvature="0"
       id="path4659"
       d="m 6.0099323,45.150672 1.321844,3.384907 h -0.836083 l -1.309474,-3.363551 z"
       style="font-style:italic;font-variant:normal;font-weight:normal;font-stretch:normal;font-size:medium;line-height:125%;font-family:Raleway;-inkscape-font-specification:'Raleway Italic';letter-spacing:0px;word-spacing:0px;fill:#deab1e;fill-opacity:1;stroke:none;stroke-width:0.26458332px;stroke-linecap:butt;stroke-linejoin:miter;stroke-opacity:1" />
    <path
       d="m 72.526012,33.372227 q -0.624416,0 -1.11125,-0.264583 -0.486833,-0.275167 -0.8255,-0.719667 -0.328083,-0.4445 -0.508,-1.016 -0.169333,-0.5715 -0.169333,-1.17475 0,-0.772583 0.3175,-1.55575 0.328083,-0.79375 0.899583,-1.42875 0.5715,-0.645583 1.354667,-1.04775 0.783166,-0.41275 1.7145,-0.41275 0.963083,0 1.534583,0.455084 0.582083,0.455083 0.762,1.185333 l -0.66675,0.359833 q -0.09525,-0.370416 -0.28575,-0.624416 -0.179917,-0.254 -0.423333,-0.41275 -0.243417,-0.15875 -0.529167,-0.22225 -0.28575,-0.07408 -0.5715,-0.07408 -0.740833,0 -1.36525,0.34925 -0.613833,0.338667 -1.058333,0.889 -0.4445,0.53975 -0.6985,1.2065 -0.243417,0.66675 -0.243417,1.30175 0,0.518584 0.137584,0.98425 0.148166,0.455083 0.41275,0.804333 0.264583,0.34925 0.645583,0.550334 0.381,0.201083 0.85725,0.201083 0.296333,0 0.624416,-0.07408 0.338667,-0.08467 0.66675,-0.254 0.328084,-0.179917 0.635,-0.433917 0.306917,-0.264583 0.550334,-0.635 l 0.550333,0.3175 q -0.264583,0.423333 -0.645583,0.751417 -0.370417,0.3175 -0.804334,0.53975 -0.433916,0.22225 -0.889,0.338666 -0.455083,0.116417 -0.867833,0.116417 z"
       style="font-style:italic;font-variant:normal;font-weight:normal;font-stretch:normal;font-size:medium;line-height:125%;font-family:Raleway;-inkscape-font-specification:'Raleway Italic';letter-spacing:0px;word-spacing:0px;fill:#deab1e;fill-opacity:1;stroke:none;stroke-width:0.26458332px;stroke-linecap:butt;stroke-linejoin:miter;stroke-opacity:1"
       id="path4661"
       inkscape:connector-curvature="0" />
    <path
       d="m 86.169582,33.361644 q -0.656167,0 -1.11125,-0.1905 -0.455083,-0.201084 -0.73025,-0.53975 -0.275167,-0.338667 -0.402167,-0.783167 -0.116416,-0.455083 -0.116416,-0.973667 0,-0.603249 0.148166,-1.291166 l 0.804334,-3.788833 h 0.73025 l -0.804334,3.788833 q -0.0635,0.306917 -0.105833,0.60325 -0.03175,0.28575 -0.03175,0.560916 0,0.41275 0.08467,0.772584 0.09525,0.34925 0.296333,0.613833 0.211667,0.254 0.53975,0.41275 0.338667,0.148167 0.8255,0.148167 0.66675,0 1.164166,-0.264584 0.508,-0.275166 0.85725,-0.709083 0.359834,-0.4445 0.582084,-1.005416 0.22225,-0.560917 0.338666,-1.132417 l 0.804334,-3.788833 h 0.73025 l -0.79375,3.788833 q -0.15875,0.762 -0.465667,1.449916 -0.306917,0.687917 -0.783167,1.2065 -0.465666,0.508 -1.100666,0.814917 -0.635,0.306917 -1.4605,0.306917 z"
       style="font-style:italic;font-variant:normal;font-weight:normal;font-stretch:normal;font-size:medium;line-height:125%;font-family:Raleway;-inkscape-font-specification:'Raleway Italic';letter-spacing:0px;word-spacing:0px;fill:#deab1e;fill-opacity:1;stroke:none;stroke-width:0.26458332px;stroke-linecap:butt;stroke-linejoin:miter;stroke-opacity:1"
       id="path4663"
       inkscape:connector-curvature="0" />
    <path
       sodipodi:nodetypes="ccccccc"
       d="m 93.584365,29.604561 -1.926167,-3.81 h 0.836084 l 1.894416,3.81 -3.407833,3.704166 h -0.836083 z"
       style="font-style:italic;font-variant:normal;font-weight:normal;font-stretch:normal;font-size:medium;line-height:125%;font-family:Raleway;-inkscape-font-specification:'Raleway Italic';letter-spacing:0px;word-spacing:0px;fill:#000000;fill-opacity:1;stroke:none;stroke-width:0.26458332px;stroke-linecap:butt;stroke-linejoin:miter;stroke-opacity:1"
       id="path4665"
       inkscape:connector-curvature="0" />
    <path
       sodipodi:nodetypes="ccccc"
       d="m 94.113532,29.075394 3.005666,-3.280833 h 0.814917 l -3.545417,3.81 z"
       style="font-style:italic;font-variant:normal;font-weight:normal;font-stretch:normal;font-size:medium;line-height:125%;font-family:Raleway;-inkscape-font-specification:'Raleway Italic';letter-spacing:0px;word-spacing:0px;fill:#deab1e;fill-opacity:1;stroke:none;stroke-width:0.26458332px;stroke-linecap:butt;stroke-linejoin:miter;stroke-opacity:1"
       id="path4667"
       inkscape:connector-curvature="0" />
    <path
       sodipodi:nodetypes="ccccc"
       d="m 94.388698,29.604561 1.862667,3.704166 h -0.814917 l -1.55575,-3.175 z"
       style="font-style:italic;font-variant:normal;font-weight:normal;font-stretch:normal;font-size:medium;line-height:125%;font-family:Raleway;-inkscape-font-specification:'Raleway Italic';letter-spacing:0px;word-spacing:0px;fill:#deab1e;fill-opacity:1;stroke:none;stroke-width:0.26458332px;stroke-linecap:butt;stroke-linejoin:miter;stroke-opacity:1"
       id="path4669"
       inkscape:connector-curvature="0" />
    <path
       inkscape:connector-curvature="0"
       id="path4671"
       d="m 67.274132,29.274311 h 26.841466 l -0.168392,0.66 H 67.10574 Z"
       style="opacity:1;fill:#000000;fill-opacity:1;stroke:none;stroke-width:0.96468174;stroke-miterlimit:4;stroke-dasharray:none;stroke-opacity:1" />
    <path
       sodipodi:nodetypes="cccscccscczcscccscccsccs"
       d="m 80.158259,29.945179 h -2.806505 l 1.007338,-4.741333 h 3.01625 c 0.261055,0 0.497416,0.05644 0.709083,0.169333 0.211667,0.105833 0.388056,0.250472 0.529167,0.433917 0.141111,0.183444 0.250472,0.395111 0.328083,0.635 0.07761,0.232833 0.116417,0.472722 0.116417,0.719666 0,0.303389 -0.05644,0.603251 -0.169333,0.899584 -0.112889,0.289277 -0.264584,0.553861 -0.455084,0.79375 -0.260658,0.274968 -0.434267,0.424677 -0.677333,0.624416 -0.243066,0.199739 -0.397394,0.288475 -0.739291,0.444311 m -0.477792,-0.634811 c 0.239889,0 0.465666,-0.05997 0.677333,-0.179916 0.218722,-0.119945 0.405694,-0.275167 0.560917,-0.465667 0.162277,-0.197555 0.289277,-0.416278 0.381,-0.656167 0.09172,-0.246944 0.137583,-0.493888 0.137583,-0.740833 0,-0.1905 -0.02822,-0.366889 -0.08467,-0.529167 -0.04939,-0.169333 -0.12347,-0.3175 -0.22225,-0.4445 -0.09172,-0.127 -0.208139,-0.225778 -0.34925,-0.296333 -0.134055,-0.07761 -0.282222,-0.116417 -0.4445,-0.116417 h -2.243663 l -0.73025,3.429 z"
       style="font-style:italic;font-variant:normal;font-weight:normal;font-stretch:normal;font-size:medium;line-height:125%;font-family:Raleway;-inkscape-font-specification:'Raleway Italic';letter-spacing:0px;word-spacing:0px;fill:#942714;fill-opacity:1;stroke:none;stroke-width:0.26458332px;stroke-linecap:butt;stroke-linejoin:miter;stroke-opacity:1"
       id="path4673"
       inkscape:connector-curvature="0" />
    <path
       inkscape:connector-curvature="0"
       id="path4675"
       d="m 78.052132,29.945179 -0.725124,3.392548 h -0.73025 l 0.754996,-3.392548 z"
       style="font-style:italic;font-variant:normal;font-weight:normal;font-stretch:normal;font-size:medium;line-height:125%;font-family:Raleway;-inkscape-font-specification:'Raleway Italic';letter-spacing:0px;word-spacing:0px;fill:#942714;fill-opacity:1;stroke:none;stroke-width:0.26458332px;stroke-linecap:butt;stroke-linejoin:miter;stroke-opacity:1" />
    <path
       inkscape:connector-curvature="0"
       id="path4677"
       d="m 81.017051,29.923823 1.321844,3.384907 h -0.836083 l -1.309474,-3.363551 z"
       style="font-style:italic;font-variant:normal;font-weight:normal;font-stretch:normal;font-size:medium;line-height:125%;font-family:Raleway;-inkscape-font-specification:'Raleway Italic';letter-spacing:0px;word-spacing:0px;fill:#942714;fill-opacity:1;stroke:none;stroke-width:0.26458332px;stroke-linecap:butt;stroke-linejoin:miter;stroke-opacity:1" />
    <g
       id="g4772">
      <path
         inkscape:connector-curvature="0"
         id="path4691"
         style="font-style:italic;font-variant:normal;font-weight:normal;font-stretch:normal;font-size:medium;line-height:125%;font-family:Raleway;-inkscape-font-specification:'Raleway Italic';letter-spacing:0px;word-spacing:0px;fill:#1eb5de;fill-opacity:1;stroke:none;stroke-width:0.26458332px;stroke-linecap:butt;stroke-linejoin:miter;stroke-opacity:1"
         d="m -38.371424,35.601909 q -0.624416,0 -1.11125,-0.264583 -0.486833,-0.275167 -0.8255,-0.719667 -0.328083,-0.4445 -0.508,-1.016 -0.169333,-0.5715 -0.169333,-1.17475 0,-0.772583 0.3175,-1.55575 0.328083,-0.79375 0.899583,-1.42875 0.5715,-0.645583 1.354667,-1.04775 0.783166,-0.41275 1.7145,-0.41275 0.963083,0 1.534583,0.455084 0.582083,0.455083 0.762,1.185333 l -0.66675,0.359833 q -0.09525,-0.370416 -0.28575,-0.624416 -0.179917,-0.254 -0.423333,-0.41275 -0.243417,-0.15875 -0.529167,-0.22225 -0.28575,-0.07408 -0.5715,-0.07408 -0.740833,0 -1.36525,0.34925 -0.613833,0.338667 -1.058333,0.889 -0.4445,0.53975 -0.6985,1.2065 -0.243417,0.66675 -0.243417,1.30175 0,0.518584 0.137584,0.98425 0.148166,0.455083 0.41275,0.804333 0.264583,0.34925 0.645583,0.550334 0.381,0.201083 0.85725,0.201083 0.296333,0 0.624416,-0.07408 0.338667,-0.08467 0.66675,-0.254 0.328084,-0.179917 0.635,-0.433917 0.306917,-0.264583 0.550334,-0.635 l 0.550333,0.3175 q -0.264583,0.423333 -0.645583,0.751417 -0.370417,0.3175 -0.804334,0.53975 -0.433916,0.22225 -0.889,0.338666 -0.455083,0.116417 -0.867833,0.116417 z" />
      <path
         inkscape:connector-curvature="0"
         id="path4693"
         style="font-style:italic;font-variant:normal;font-weight:normal;font-stretch:normal;font-size:medium;line-height:125%;font-family:Raleway;-inkscape-font-specification:'Raleway Italic';letter-spacing:0px;word-spacing:0px;fill:#1eb5de;fill-opacity:1;stroke:none;stroke-width:0.26458332px;stroke-linecap:butt;stroke-linejoin:miter;stroke-opacity:1"
         d="m -24.727854,35.591326 q -0.656167,0 -1.11125,-0.1905 -0.455083,-0.201084 -0.73025,-0.53975 -0.275167,-0.338667 -0.402167,-0.783167 -0.116416,-0.455083 -0.116416,-0.973667 0,-0.603249 0.148166,-1.291166 l 0.804334,-3.788833 h 0.73025 l -0.804334,3.788833 q -0.0635,0.306917 -0.105833,0.60325 -0.03175,0.28575 -0.03175,0.560916 0,0.41275 0.08467,0.772584 0.09525,0.34925 0.296333,0.613833 0.211667,0.254 0.53975,0.41275 0.338667,0.148167 0.8255,0.148167 0.66675,0 1.164166,-0.264584 0.508,-0.275166 0.85725,-0.709083 0.359834,-0.4445 0.582084,-1.005416 0.22225,-0.560917 0.338666,-1.132417 l 0.804334,-3.788833 h 0.73025 l -0.79375,3.788833 q -0.15875,0.762 -0.465667,1.449916 -0.306917,0.687917 -0.783167,1.2065 -0.465666,0.508 -1.100666,0.814917 -0.635,0.306917 -1.4605,0.306917 z" />
      <path
         inkscape:connector-curvature="0"
         id="path4695"
         style="font-style:italic;font-variant:normal;font-weight:normal;font-stretch:normal;font-size:medium;line-height:125%;font-family:Raleway;-inkscape-font-specification:'Raleway Italic';letter-spacing:0px;word-spacing:0px;fill:#000000;fill-opacity:1;stroke:none;stroke-width:0.26458332px;stroke-linecap:butt;stroke-linejoin:miter;stroke-opacity:1"
         d="m -17.313071,31.834243 -1.926167,-3.81 h 0.836084 l 1.894416,3.81 -3.407833,3.704166 h -0.836083 z"
         sodipodi:nodetypes="ccccccc" />
      <path
         inkscape:connector-curvature="0"
         id="path4697"
         style="font-style:italic;font-variant:normal;font-weight:normal;font-stretch:normal;font-size:medium;line-height:125%;font-family:Raleway;-inkscape-font-specification:'Raleway Italic';letter-spacing:0px;word-spacing:0px;fill:#1eb5de;fill-opacity:1;stroke:none;stroke-width:0.26458332px;stroke-linecap:butt;stroke-linejoin:miter;stroke-opacity:1"
         d="m -16.783904,31.305076 3.005666,-3.280833 h 0.814917 l -3.545417,3.81 z"
         sodipodi:nodetypes="ccccc" />
      <path
         inkscape:connector-curvature="0"
         id="path4699"
         style="font-style:italic;font-variant:normal;font-weight:normal;font-stretch:normal;font-size:medium;line-height:125%;font-family:Raleway;-inkscape-font-specification:'Raleway Italic';letter-spacing:0px;word-spacing:0px;fill:#1eb5de;fill-opacity:1;stroke:none;stroke-width:0.26458332px;stroke-linecap:butt;stroke-linejoin:miter;stroke-opacity:1"
         d="m -16.508738,31.834243 1.862667,3.704166 h -0.814917 l -1.55575,-3.175 z"
         sodipodi:nodetypes="ccccc" />
      <path
         inkscape:connector-curvature="0"
         style="font-style:italic;font-variant:normal;font-weight:normal;font-stretch:normal;font-size:medium;line-height:125%;font-family:Raleway;-inkscape-font-specification:'Raleway Italic';letter-spacing:0px;word-spacing:0px;fill:#1eb5de;fill-opacity:1;stroke:none;stroke-width:0.24755348px;stroke-linecap:butt;stroke-linejoin:miter;stroke-opacity:1"
         d="m -32.538394,28.02449 -1.007174,4.150133 -0.754993,3.392559 h 0.730189 l 0.725019,-3.392559 h 2.106332 l 0.222723,-0.0047 -0.187584,0.0047 1.309481,3.363619 h 0.835607 l -1.320331,-3.382738 c 0.340966,-0.136091 0.495189,-0.213463 0.737938,-0.388091 0.243065,-0.174852 0.41682,-0.306025 0.677479,-0.546735 0.1905,-0.210002 0.342379,-0.441812 0.455269,-0.69505 0.112892,-0.259413 0.168981,-0.521959 0.168981,-0.787548 0,-0.216178 -0.03866,-0.426111 -0.116271,-0.629936 -0.07761,-0.210002 -0.187034,-0.395449 -0.328147,-0.556037 -0.14111,-0.160592 -0.317497,-0.287174 -0.529166,-0.379823 -0.211667,-0.09882 -0.447945,-0.147794 -0.708999,-0.147794 z m 0.592727,0.574125 h 2.243791 c 0.162277,0 0.310362,0.03386 0.444418,0.101804 0.141111,0.06176 0.257612,0.148238 0.349332,0.259413 0.09878,0.111178 0.172818,0.240887 0.222208,0.389126 0.05645,0.14206 0.08475,0.296769 0.08475,0.463536 0,0.216178 -0.04626,0.432361 -0.137977,0.648539 -0.09172,0.210002 -0.218578,0.401182 -0.380855,0.574125 -0.155223,0.166767 -0.341968,0.302725 -0.560689,0.407728 -0.211666,0.105 -0.437589,0.157612 -0.677479,0.157612 h -2.317689 z"
         id="path4701" />
      <path
         style="opacity:1;fill:#000000;fill-opacity:1;stroke:none;stroke-width:0.96468174;stroke-miterlimit:4;stroke-dasharray:none;stroke-opacity:1"
         d="m -43.623304,31.503993 h 26.841466 l -0.168392,0.66 h -26.841466 z"
         id="path4703"
         inkscape:connector-curvature="0" />
    </g>
    <path
       inkscape:connector-curvature="0"
       id="path4714"
       style="font-style:italic;font-variant:normal;font-weight:normal;font-stretch:normal;font-size:medium;line-height:125%;font-family:Raleway;-inkscape-font-specification:'Raleway Italic';letter-spacing:0px;word-spacing:0px;fill:#1eb5de;fill-opacity:1;stroke:none;stroke-width:0.26458332px;stroke-linecap:butt;stroke-linejoin:miter;stroke-opacity:1"
       d="m -39.026234,46.546596 q -0.624416,0 -1.11125,-0.264583 -0.486833,-0.275167 -0.8255,-0.719667 -0.328083,-0.4445 -0.508,-1.016 -0.169333,-0.5715 -0.169333,-1.17475 0,-0.772583 0.3175,-1.55575 0.328083,-0.79375 0.899583,-1.42875 0.5715,-0.645583 1.354667,-1.04775 0.783166,-0.41275 1.7145,-0.41275 0.963083,0 1.534583,0.455084 0.582083,0.455083 0.762,1.185333 l -0.66675,0.359833 q -0.09525,-0.370416 -0.28575,-0.624416 -0.179917,-0.254 -0.423333,-0.41275 -0.243417,-0.15875 -0.529167,-0.22225 -0.28575,-0.07408 -0.5715,-0.07408 -0.740833,0 -1.36525,0.34925 -0.613833,0.338667 -1.058333,0.889 -0.4445,0.53975 -0.6985,1.2065 -0.243417,0.66675 -0.243417,1.30175 0,0.518584 0.137584,0.98425 0.148166,0.455083 0.41275,0.804333 0.264583,0.34925 0.645583,0.550334 0.381,0.201083 0.85725,0.201083 0.296333,0 0.624416,-0.07408 0.338667,-0.08467 0.66675,-0.254 0.328084,-0.179917 0.635,-0.433917 0.306917,-0.264583 0.550334,-0.635 l 0.550333,0.3175 q -0.264583,0.423333 -0.645583,0.751417 -0.370417,0.3175 -0.804334,0.53975 -0.433916,0.22225 -0.889,0.338666 -0.455083,0.116417 -0.867833,0.116417 z" />
    <path
       inkscape:connector-curvature="0"
       id="path4716"
       style="font-style:italic;font-variant:normal;font-weight:normal;font-stretch:normal;font-size:medium;line-height:125%;font-family:Raleway;-inkscape-font-specification:'Raleway Italic';letter-spacing:0px;word-spacing:0px;fill:#1eb5de;fill-opacity:1;stroke:none;stroke-width:0.26458332px;stroke-linecap:butt;stroke-linejoin:miter;stroke-opacity:1"
       d="m -25.382664,46.536013 q -0.656167,0 -1.11125,-0.1905 -0.455083,-0.201084 -0.73025,-0.53975 -0.275167,-0.338667 -0.402167,-0.783167 -0.116416,-0.455083 -0.116416,-0.973667 0,-0.603249 0.148166,-1.291166 l 0.804334,-3.788833 h 0.73025 l -0.804334,3.788833 q -0.0635,0.306917 -0.105833,0.60325 -0.03175,0.28575 -0.03175,0.560916 0,0.41275 0.08467,0.772584 0.09525,0.34925 0.296333,0.613833 0.211667,0.254 0.53975,0.41275 0.338667,0.148167 0.8255,0.148167 0.66675,0 1.164166,-0.264584 0.508,-0.275166 0.85725,-0.709083 0.359834,-0.4445 0.582084,-1.005416 0.22225,-0.560917 0.338666,-1.132417 l 0.804334,-3.788833 h 0.73025 l -0.79375,3.788833 q -0.15875,0.762 -0.465667,1.449916 -0.306917,0.687917 -0.783167,1.2065 -0.465666,0.508 -1.100666,0.814917 -0.635,0.306917 -1.4605,0.306917 z" />
    <path
       inkscape:connector-curvature="0"
       id="path4718"
       style="font-style:italic;font-variant:normal;font-weight:normal;font-stretch:normal;font-size:medium;line-height:125%;font-family:Raleway;-inkscape-font-specification:'Raleway Italic';letter-spacing:0px;word-spacing:0px;fill:#ffda34;fill-opacity:1;stroke:none;stroke-width:0.26458332px;stroke-linecap:butt;stroke-linejoin:miter;stroke-opacity:1"
       d="m -17.967881,42.77893 -1.926167,-3.81 h 0.836084 l 1.894416,3.81 -3.407833,3.704166 h -0.836083 z"
       sodipodi:nodetypes="ccccccc" />
    <path
       inkscape:connector-curvature="0"
       id="path4720"
       style="font-style:italic;font-variant:normal;font-weight:normal;font-stretch:normal;font-size:medium;line-height:125%;font-family:Raleway;-inkscape-font-specification:'Raleway Italic';letter-spacing:0px;word-spacing:0px;fill:#1eb5de;fill-opacity:1;stroke:none;stroke-width:0.26458332px;stroke-linecap:butt;stroke-linejoin:miter;stroke-opacity:1"
       d="m -17.438714,42.249763 3.005666,-3.280833 h 0.814917 l -3.545417,3.81 z"
       sodipodi:nodetypes="ccccc" />
    <path
       inkscape:connector-curvature="0"
       id="path4722"
       style="font-style:italic;font-variant:normal;font-weight:normal;font-stretch:normal;font-size:medium;line-height:125%;font-family:Raleway;-inkscape-font-specification:'Raleway Italic';letter-spacing:0px;word-spacing:0px;fill:#1eb5de;fill-opacity:1;stroke:none;stroke-width:0.26458332px;stroke-linecap:butt;stroke-linejoin:miter;stroke-opacity:1"
       d="m -17.163548,42.77893 1.862667,3.704166 h -0.814917 l -1.55575,-3.175 z"
       sodipodi:nodetypes="ccccc" />
    <path
       inkscape:connector-curvature="0"
       style="font-style:italic;font-variant:normal;font-weight:normal;font-stretch:normal;font-size:medium;line-height:125%;font-family:Raleway;-inkscape-font-specification:'Raleway Italic';letter-spacing:0px;word-spacing:0px;fill:#1eb5de;fill-opacity:1;stroke:none;stroke-width:0.24755348px;stroke-linecap:butt;stroke-linejoin:miter;stroke-opacity:1"
       d="m -33.193204,38.969177 -1.007174,4.150133 -0.754993,3.392559 h 0.730189 l 0.725019,-3.409015 h 2.106332 0.02873 l 1.315888,3.380075 h 0.835607 l -1.320331,-3.382738 c 0.340966,-0.136091 0.495189,-0.213463 0.737938,-0.388091 0.243065,-0.174852 0.41682,-0.306025 0.677479,-0.546735 0.1905,-0.210002 0.342379,-0.441812 0.455269,-0.69505 0.112892,-0.259413 0.168981,-0.521959 0.168981,-0.787548 0,-0.216178 -0.03866,-0.426111 -0.116271,-0.629936 -0.07761,-0.210002 -0.187034,-0.395449 -0.328147,-0.556037 -0.14111,-0.160592 -0.317497,-0.287174 -0.529166,-0.379823 -0.211667,-0.09882 -0.447945,-0.147794 -0.708999,-0.147794 z m 0.592727,0.574125 h 2.243791 c 0.162277,0 0.310362,0.03386 0.444418,0.101804 0.141111,0.06176 0.257612,0.148238 0.349332,0.259413 0.09878,0.111178 0.172818,0.240887 0.222208,0.389126 0.05645,0.14206 0.08475,0.296769 0.08475,0.463536 0,0.216178 -0.04626,0.432361 -0.137977,0.648539 -0.09172,0.210002 -0.218578,0.401182 -0.380855,0.574125 -0.155223,0.166767 -0.341968,0.302725 -0.560689,0.407728 -0.211666,0.105 -0.437589,0.157612 -0.677479,0.157612 h -2.317689 z"
       id="path4724"
       sodipodi:nodetypes="cccccccccccccscccsccscccscccscc" />
    <path
       style="opacity:1;fill:#ffda34;fill-opacity:1;stroke:none;stroke-width:0.96468174;stroke-miterlimit:4;stroke-dasharray:none;stroke-opacity:1"
       d="m -44.278114,42.44868 h 26.841466 l -0.168392,0.66 h -26.841466 z"
       id="path4726"
       inkscape:connector-curvature="0" />
    <g
       id="g4790">
      <path
         inkscape:connector-curvature="0"
         id="path4728"
         style="font-style:italic;font-variant:normal;font-weight:normal;font-stretch:normal;font-size:medium;line-height:125%;font-family:Raleway;-inkscape-font-specification:'Raleway Italic';letter-spacing:0px;word-spacing:0px;fill:#1eb5de;fill-opacity:1;stroke:none;stroke-width:0.26458332px;stroke-linecap:butt;stroke-linejoin:miter;stroke-opacity:1"
         d="m -39.961677,56.55584 q -0.624416,0 -1.11125,-0.264583 -0.486833,-0.275167 -0.8255,-0.719667 -0.328083,-0.4445 -0.508,-1.016 -0.169333,-0.5715 -0.169333,-1.17475 0,-0.772583 0.3175,-1.55575 0.328083,-0.79375 0.899583,-1.42875 0.5715,-0.645583 1.354667,-1.04775 0.783166,-0.41275 1.7145,-0.41275 0.963083,0 1.534583,0.455084 0.582083,0.455083 0.762,1.185333 l -0.66675,0.359833 q -0.09525,-0.370416 -0.28575,-0.624416 -0.179917,-0.254 -0.423333,-0.41275 -0.243417,-0.15875 -0.529167,-0.22225 -0.28575,-0.07408 -0.5715,-0.07408 -0.740833,0 -1.36525,0.34925 -0.613833,0.338667 -1.058333,0.889 -0.4445,0.53975 -0.6985,1.2065 -0.243417,0.66675 -0.243417,1.30175 0,0.518584 0.137584,0.98425 0.148166,0.455083 0.41275,0.804333 0.264583,0.34925 0.645583,0.550334 0.381,0.201083 0.85725,0.201083 0.296333,0 0.624416,-0.07408 0.338667,-0.08467 0.66675,-0.254 0.328084,-0.179917 0.635,-0.433917 0.306917,-0.264583 0.550334,-0.635 l 0.550333,0.3175 q -0.264583,0.423333 -0.645583,0.751417 -0.370417,0.3175 -0.804334,0.53975 -0.433916,0.22225 -0.889,0.338666 -0.455083,0.116417 -0.867833,0.116417 z" />
      <path
         inkscape:connector-curvature="0"
         id="path4730"
         style="font-style:italic;font-variant:normal;font-weight:normal;font-stretch:normal;font-size:medium;line-height:125%;font-family:Raleway;-inkscape-font-specification:'Raleway Italic';letter-spacing:0px;word-spacing:0px;fill:#1eb5de;fill-opacity:1;stroke:none;stroke-width:0.26458332px;stroke-linecap:butt;stroke-linejoin:miter;stroke-opacity:1"
         d="m -26.318107,56.545257 q -0.656167,0 -1.11125,-0.1905 -0.455083,-0.201084 -0.73025,-0.53975 -0.275167,-0.338667 -0.402167,-0.783167 -0.116416,-0.455083 -0.116416,-0.973667 0,-0.603249 0.148166,-1.291166 l 0.804334,-3.788833 h 0.73025 l -0.804334,3.788833 q -0.0635,0.306917 -0.105833,0.60325 -0.03175,0.28575 -0.03175,0.560916 0,0.41275 0.08467,0.772584 0.09525,0.34925 0.296333,0.613833 0.211667,0.254 0.53975,0.41275 0.338667,0.148167 0.8255,0.148167 0.66675,0 1.164166,-0.264584 0.508,-0.275166 0.85725,-0.709083 0.359834,-0.4445 0.582084,-1.005416 0.22225,-0.560917 0.338666,-1.132417 l 0.804334,-3.788833 h 0.73025 l -0.79375,3.788833 q -0.15875,0.762 -0.465667,1.449916 -0.306917,0.687917 -0.783167,1.2065 -0.465666,0.508 -1.100666,0.814917 -0.635,0.306917 -1.4605,0.306917 z" />
      <path
         inkscape:connector-curvature="0"
         id="path4732"
         style="font-style:italic;font-variant:normal;font-weight:normal;font-stretch:normal;font-size:medium;line-height:125%;font-family:Raleway;-inkscape-font-specification:'Raleway Italic';letter-spacing:0px;word-spacing:0px;fill:#d1d1d1;fill-opacity:1;stroke:none;stroke-width:0.26458332px;stroke-linecap:butt;stroke-linejoin:miter;stroke-opacity:1"
         d="m -18.903324,52.788174 -1.926167,-3.81 h 0.836084 l 1.894416,3.81 -3.407833,3.704166 h -0.836083 z"
         sodipodi:nodetypes="ccccccc" />
      <path
         inkscape:connector-curvature="0"
         id="path4734"
         style="font-style:italic;font-variant:normal;font-weight:normal;font-stretch:normal;font-size:medium;line-height:125%;font-family:Raleway;-inkscape-font-specification:'Raleway Italic';letter-spacing:0px;word-spacing:0px;fill:#1eb5de;fill-opacity:1;stroke:none;stroke-width:0.26458332px;stroke-linecap:butt;stroke-linejoin:miter;stroke-opacity:1"
         d="m -18.374157,52.259007 3.005666,-3.280833 h 0.814917 l -3.545417,3.81 z"
         sodipodi:nodetypes="ccccc" />
      <path
         inkscape:connector-curvature="0"
         id="path4736"
         style="font-style:italic;font-variant:normal;font-weight:normal;font-stretch:normal;font-size:medium;line-height:125%;font-family:Raleway;-inkscape-font-specification:'Raleway Italic';letter-spacing:0px;word-spacing:0px;fill:#1eb5de;fill-opacity:1;stroke:none;stroke-width:0.26458332px;stroke-linecap:butt;stroke-linejoin:miter;stroke-opacity:1"
         d="m -18.098991,52.788174 1.862667,3.704166 h -0.814917 l -1.55575,-3.175 z"
         sodipodi:nodetypes="ccccc" />
      <path
         inkscape:connector-curvature="0"
         style="font-style:italic;font-variant:normal;font-weight:normal;font-stretch:normal;font-size:medium;line-height:125%;font-family:Raleway;-inkscape-font-specification:'Raleway Italic';letter-spacing:0px;word-spacing:0px;fill:#1eb5de;fill-opacity:1;stroke:none;stroke-width:0.24755348px;stroke-linecap:butt;stroke-linejoin:miter;stroke-opacity:1"
         d="m -34.128647,48.978421 -1.007174,4.150133 -0.754993,3.392559 h 0.730189 l 0.725019,-3.392559 h 2.106332 l 0.222723,-0.0047 -0.187584,0.0047 1.309481,3.363619 h 0.835607 l -1.320331,-3.382738 c 0.340966,-0.136091 0.495189,-0.213463 0.737938,-0.388091 0.243065,-0.174852 0.41682,-0.306025 0.677479,-0.546735 0.1905,-0.210002 0.342379,-0.441812 0.455269,-0.69505 0.112892,-0.259413 0.168981,-0.521959 0.168981,-0.787548 0,-0.216178 -0.03866,-0.426111 -0.116271,-0.629936 -0.07761,-0.210002 -0.187034,-0.395449 -0.328147,-0.556037 -0.14111,-0.160592 -0.317497,-0.287174 -0.529166,-0.379823 -0.211667,-0.09882 -0.447945,-0.147794 -0.708999,-0.147794 z m 0.592727,0.574125 h 2.243791 c 0.162277,0 0.310362,0.03386 0.444418,0.101804 0.141111,0.06176 0.257612,0.148238 0.349332,0.259413 0.09878,0.111178 0.172818,0.240887 0.222208,0.389126 0.05645,0.14206 0.08475,0.296769 0.08475,0.463536 0,0.216178 -0.04626,0.432361 -0.137977,0.648539 -0.09172,0.210002 -0.218578,0.401182 -0.380855,0.574125 -0.155223,0.166767 -0.341968,0.302725 -0.560689,0.407728 -0.211666,0.105 -0.437589,0.157612 -0.677479,0.157612 h -2.317689 z"
         id="path4738" />
      <path
         style="opacity:1;fill:#d1d1d1;fill-opacity:1;stroke:none;stroke-width:0.96468174;stroke-miterlimit:4;stroke-dasharray:none;stroke-opacity:1"
         d="m -45.213557,52.457924 h 26.841466 l -0.168392,0.66 h -26.841466 z"
         id="path4740"
         inkscape:connector-curvature="0" />
    </g>
    <path
       d="m -38.745601,12.870636 q -0.624416,0 -1.11125,-0.264583 -0.486833,-0.275167 -0.8255,-0.719667 -0.328083,-0.4445 -0.508,-1.016 -0.169333,-0.5715 -0.169333,-1.17475 0,-0.772583 0.3175,-1.55575 0.328083,-0.79375 0.899583,-1.42875 0.5715,-0.645583 1.354667,-1.04775 0.783166,-0.41275 1.7145,-0.41275 0.963083,0 1.534583,0.455084 0.582083,0.455083 0.762,1.185333 l -0.66675,0.359833 q -0.09525,-0.370416 -0.28575,-0.624416 -0.179917,-0.254 -0.423333,-0.41275 -0.243417,-0.15875 -0.529167,-0.22225 -0.28575,-0.07408 -0.5715,-0.07408 -0.740833,0 -1.36525,0.34925 -0.613833,0.338667 -1.058333,0.889 -0.4445,0.53975 -0.6985,1.2065 -0.243417,0.66675 -0.243417,1.30175 0,0.518584 0.137584,0.98425 0.148166,0.455083 0.41275,0.804333 0.264583,0.34925 0.645583,0.550334 0.381,0.201083 0.85725,0.201083 0.296333,0 0.624416,-0.07408 0.338667,-0.08467 0.66675,-0.254 0.328084,-0.179917 0.635,-0.433917 0.306917,-0.264583 0.550334,-0.635 l 0.550333,0.3175 q -0.264583,0.423333 -0.645583,0.751417 -0.370417,0.3175 -0.804334,0.53975 -0.433916,0.22225 -0.889,0.338666 -0.455083,0.116417 -0.867833,0.116417 z"
       style="font-style:italic;font-variant:normal;font-weight:normal;font-stretch:normal;font-size:medium;line-height:125%;font-family:Raleway;-inkscape-font-specification:'Raleway Italic';letter-spacing:0px;word-spacing:0px;fill:#000000;fill-opacity:1;stroke:none;stroke-width:0.26458332px;stroke-linecap:butt;stroke-linejoin:miter;stroke-opacity:1"
       id="path4742"
       inkscape:connector-curvature="0" />
    <path
       d="m -25.102031,12.860053 q -0.656167,0 -1.11125,-0.1905 -0.455083,-0.201084 -0.73025,-0.53975 -0.275167,-0.338667 -0.402167,-0.783167 -0.116416,-0.455083 -0.116416,-0.973667 0,-0.603249 0.148166,-1.291166 l 0.804334,-3.788833 h 0.73025 l -0.804334,3.788833 q -0.0635,0.306917 -0.105833,0.60325 -0.03175,0.28575 -0.03175,0.560916 0,0.41275 0.08467,0.772584 0.09525,0.34925 0.296333,0.613833 0.211667,0.254 0.53975,0.41275 0.338667,0.148167 0.8255,0.148167 0.66675,0 1.164166,-0.264584 0.508,-0.275166 0.85725,-0.709083 0.359834,-0.4445 0.582084,-1.005416 0.22225,-0.560917 0.338666,-1.132417 l 0.804334,-3.788833 h 0.73025 l -0.79375,3.788833 q -0.15875,0.762 -0.465667,1.449916 -0.306917,0.687917 -0.783167,1.2065 -0.465666,0.508 -1.100666,0.814917 -0.635,0.306917 -1.4605,0.306917 z"
       style="font-style:italic;font-variant:normal;font-weight:normal;font-stretch:normal;font-size:medium;line-height:125%;font-family:Raleway;-inkscape-font-specification:'Raleway Italic';letter-spacing:0px;word-spacing:0px;fill:#000000;fill-opacity:1;stroke:none;stroke-width:0.26458332px;stroke-linecap:butt;stroke-linejoin:miter;stroke-opacity:1"
       id="path4744"
       inkscape:connector-curvature="0" />
    <path
       sodipodi:nodetypes="ccccccc"
       d="m -17.687248,9.10297 -1.926167,-3.81 h 0.836084 l 1.894416,3.81 -3.407833,3.704166 h -0.836083 z"
       style="font-style:italic;font-variant:normal;font-weight:normal;font-stretch:normal;font-size:medium;line-height:125%;font-family:Raleway;-inkscape-font-specification:'Raleway Italic';letter-spacing:0px;word-spacing:0px;fill:#b10404;fill-opacity:1;stroke:none;stroke-width:0.26458332px;stroke-linecap:butt;stroke-linejoin:miter;stroke-opacity:1"
       id="path4746"
       inkscape:connector-curvature="0" />
    <path
       sodipodi:nodetypes="ccccc"
       d="m -17.158081,8.573803 3.005666,-3.280833 h 0.814917 l -3.545417,3.81 z"
       style="font-style:italic;font-variant:normal;font-weight:normal;font-stretch:normal;font-size:medium;line-height:125%;font-family:Raleway;-inkscape-font-specification:'Raleway Italic';letter-spacing:0px;word-spacing:0px;fill:#000000;fill-opacity:1;stroke:none;stroke-width:0.26458332px;stroke-linecap:butt;stroke-linejoin:miter;stroke-opacity:1"
       id="path4748"
       inkscape:connector-curvature="0" />
    <path
       sodipodi:nodetypes="ccccc"
       d="m -16.882915,9.10297 1.862667,3.704166 h -0.814917 l -1.55575,-3.175 z"
       style="font-style:italic;font-variant:normal;font-weight:normal;font-stretch:normal;font-size:medium;line-height:125%;font-family:Raleway;-inkscape-font-specification:'Raleway Italic';letter-spacing:0px;word-spacing:0px;fill:#000000;fill-opacity:1;stroke:none;stroke-width:0.26458332px;stroke-linecap:butt;stroke-linejoin:miter;stroke-opacity:1"
       id="path4750"
       inkscape:connector-curvature="0" />
    <path
       id="path4752"
       d="m -32.912571,5.2932174 -1.007174,4.1501325 -0.754993,3.3925591 h 0.730189 l 0.725019,-3.3925591 h 2.106332 l 0.222723,-0.00466 -0.187584,0.00466 1.309481,3.3636191 h 0.835607 l -1.320331,-3.3827379 c 0.340966,-0.1360911 0.495189,-0.2134632 0.737938,-0.3880909 0.243065,-0.1748525 0.41682,-0.306025 0.677479,-0.546735 0.1905,-0.2100024 0.342379,-0.4418118 0.455269,-0.6950498 0.112892,-0.2594134 0.168981,-0.5219594 0.168981,-0.7875481 0,-0.2161779 -0.03866,-0.4261115 -0.116271,-0.6299359 -0.07761,-0.2100024 -0.187034,-0.3954489 -0.328147,-0.5560378 -0.14111,-0.1605915 -0.317497,-0.2871734 -0.529166,-0.3798226 -0.211667,-0.098824 -0.447945,-0.1477936 -0.708999,-0.1477936 z m 0.592727,0.5741247 h 2.243791 c 0.162277,0 0.310362,0.033861 0.444418,0.1018037 0.141111,0.061764 0.257612,0.1482381 0.349332,0.2594134 0.09878,0.1111779 0.172818,0.2408873 0.222208,0.3891254 0.05645,0.14206 0.08475,0.2967698 0.08475,0.4635367 0,0.2161778 -0.04626,0.4323609 -0.137977,0.6485387 -0.09172,0.2100025 -0.218578,0.4011825 -0.380855,0.5741247 -0.155223,0.1667669 -0.341968,0.3027257 -0.560689,0.4077282 -0.211666,0.1049999 -0.437589,0.1576123 -0.677479,0.1576123 h -2.317689 z"
       style="font-style:italic;font-variant:normal;font-weight:normal;font-stretch:normal;font-size:medium;line-height:125%;font-family:Raleway;-inkscape-font-specification:'Raleway Italic';letter-spacing:0px;word-spacing:0px;fill:#000000;fill-opacity:1;stroke:none;stroke-width:0.24755348px;stroke-linecap:butt;stroke-linejoin:miter;stroke-opacity:1"
       inkscape:connector-curvature="0" />
    <path
       inkscape:connector-curvature="0"
       id="path4754"
       d="m -43.997481,8.77272 h 26.841466 l -0.168392,0.66 h -26.841466 z"
       style="opacity:1;fill:#b10404;fill-opacity:1;stroke:none;stroke-width:0.96468174;stroke-miterlimit:4;stroke-dasharray:none;stroke-opacity:1" />
  </g>
</svg>
