<svg width="79.375mm" height="23.454mm" version="1.1" viewBox="0 0 79.375 23.453772" xmlns="http://www.w3.org/2000/svg">
  <g transform="translate(-1.1993e-6 -273.55)">
    <g transform="matrix(1.9372 0 0 1.9372 -75.229 131.58)" fill="#102a8a">
      <path d="m40.631 83.465 0.71881-0.1925-1.5414-5.7555-0.71881 0.1925-0.25533-0.95342 2.396-0.64167 4.1509 5.8912 0.68108-7.1852 2.2712-0.60825 0.25533 0.95342-0.71382 0.19116 1.5414 5.7555 0.71382-0.19117 0.22993 0.85858-2.4559 0.65772-0.22993-0.85858 0.80866-0.21657-1.5561-5.8104-0.85963 7.3775-0.8486 0.22726-4.4706-5.9661 1.5601 5.8254 0.77871-0.20855 0.22993 0.85858-2.4559 0.65772z"/>
      <path d="m54.533 75.306q-0.25724-0.36214-0.61056-0.50605-0.34818-0.14446-0.78491-0.09749-0.33397 0.03592-0.61192 0.20615-0.27794 0.17023-0.47125 0.45089-0.18816 0.28011-0.27682 0.66386-0.08407 0.37806-0.03544 0.83021 0.04808 0.44701 0.21008 0.7934 0.16714 0.34585 0.4157 0.57899 0.24801 0.22799 0.55066 0.33577 0.30724 0.10209 0.64121 0.0662 0.49325-0.0531 0.83262-0.32864 0.33882-0.28073 0.50488-0.76636l0.83326 0.30538q-0.11877 0.34541-0.31666 0.63177-0.19789 0.28635-0.46572 0.50227-0.2627 0.21536-0.59644 0.35001-0.32806 0.13924-0.70827 0.18013-0.5549 0.0597-1.0497-0.095-0.49022-0.16036-0.87481-0.49841-0.37945-0.3386-0.62538-0.83709-0.24592-0.49849-0.31224-1.115-0.06632-0.61657 0.07825-1.1571 0.14456-0.54049 0.45416-0.94801 0.30904-0.41265 0.75394-0.6736 0.4449-0.26095 0.97925-0.31842 0.50352-0.05416 0.96932 0.07245 0.47094 0.12606 0.84818 0.44411l0.53949-0.05803 0.09506 0.88374z"/>
      <path d="m62.945 74.278 0.01717-0.89384 1.798 0.03454-0.01717 0.89384-0.61484-0.01181-3.4862 2.8223 3.1478 3.2236 0.837 0.0161-0.01707 0.88867-2.108-0.0405 0.01707-0.88867-3.0506-3.1701zm-5.1599-0.99327 2.542 0.04882-0.01717 0.89384-0.79567-0.01528-0.11621 6.0502 0.78534 0.0151-0.01707 0.88867-2.542-0.0488 0.01707-0.88867 0.744 0.0143 0.11621-6.0502-0.73367-0.01409z"/>
      <path d="m66.917 73.679 5.5466 0.85451-0.33755 2.1911-1.047-0.1613 0.20143-1.3075-2.7631-0.42568-0.38162 2.4771 2.3239 0.35801-0.13534 0.87847-2.3239-0.35801-0.40443 2.6252 2.7631 0.42568 0.20143-1.3075 1.047 0.1613-0.33677 2.186-5.5466-0.85451 0.13534-0.87847 0.73546 0.11331 0.92139-5.9808-0.73546-0.1133z"/>
      <path d="m74.406 74.98 5.4039 1.5144-0.59825 2.1347-1.0201-0.28588 0.357-1.2738-2.692-0.75444-0.67634 2.4133 2.264 0.63451-0.23986 0.85586-2.264-0.63451-0.71678 2.5576 2.692 0.75443 0.357-1.2738 1.0201 0.28587-0.59686 2.1297-5.4039-1.5144 0.23986-0.85586 0.71653 0.20081 1.633-5.8268-0.71653-0.20081z"/>
    </g>
    <g>
      <g transform="matrix(1.9372 0 0 1.9372 -100.12 203.7)" fill="#7e7e7e" stroke-width=".26458px" aria-label="solutions">
        <path d="m65.793 47.79q0.14693-0.01913 0.2457-0.2113 0.10243-0.19691 0.1293-0.38398 0.02632-0.19127 0.01211-0.30041-0.0038-0.02939-0.05-0.02337-0.04198 0.0055-0.09474 0.0593l-0.49471 0.4956q-0.0544 0.04124-0.12996 0.05108-0.07556 0.0098-0.08267-0.04473-0.0049-0.03778 0.0018-0.05147 0.01095-0.01423 0.0575-0.05018 0.28276-0.25455 0.75722-0.80728 0.05203-0.09216 0.10241-0.09872 0.05038-0.0066 0.17229 0.01172 0.12137 0.01408 0.12683 0.05606 0.0328 0.25187 0.01341 0.46358t-0.05555 0.32742q-0.03251 0.11096-0.03142 0.11936 0.0011 0.0084 0.0095 0.0073t0.03194-0.01697q0.29407-0.20052 0.73401-0.62495l0.09091-0.08868q0.04161 0.02446 0.04707 0.06644 0.0055 0.04198-0.02794 0.08048-0.0084 0.0011-0.19533 0.20474-0.18274 0.2031-0.41147 0.44634-0.22509 0.2385-0.49233 0.44833-0.26724 0.20983-0.42676 0.23061-0.3946 0.05139-0.45638-0.42297-0.0049-0.03778 0.02064-0.07099 0.02921-0.03796 0.07958-0.04452 0.0027 0.02099 0.02974 0.06443 0.03065 0.0387 0.05967 0.0648 0.08486 0.06152 0.22758 0.04294z"/>
        <path d="m67.125 47.749q0.13475-0.01388 0.31446-0.21113t0.18118-0.2655q-0.05487-0.03691-0.1251-0.14032-0.06645-0.10806-0.07067-0.10763-0.11796 0.13557-0.20254 0.306-0.13226 0.28599-0.12185 0.38706 0.0035 0.03369 0.02452 0.03152zm0.80331-1.1254q-0.04211 0.0043-0.16342 0.14876-0.1171 0.14399-0.11189 0.19452 0.0013 0.01263 0.03047 0.04793t0.0418 0.034q0.07159-0.0074 0.14224-0.18914 0.07486-0.1822 0.07226-0.20746-3e-3 -0.02948-0.01146-0.02861zm0.06438 0.54236q0.11791-0.01215 0.35161-0.18091 0.23792-0.1692 0.41266-0.3319l0.17432-0.16691q0.04094 0.02557 0.04527 0.06768 0.0043 0.04211-0.03009 0.0797-0.62846 0.71586-0.9864 0.75273-0.02527 0.0026-0.07667-6.14e-4 -0.41902 0.60066-0.76012 0.6358-0.23087-0.01026-0.30283-0.13052-0.04019-0.0597-0.05017-0.15655-0.02863-0.27793 0.25194-0.6941 0.28013-0.42038 0.74575-0.65134 0.04211-0.0043 0.06533 0.01455 0.02279 0.01467 0.04007 0.01715 0.01684-0.0017 0.04037-0.02118 0.02731-0.02409 0.07363-0.02886 0.04589-9e-3 0.10206 0.04056 0.07302 0.0478 0.08126 0.12781 0.02429 0.23582-0.178 0.6269z"/>
        <path d="m68.83 47.494q0.13928-0.01081 0.52936-0.2916 0.3943-0.28112 0.71262-0.55634l0.32254-0.27555q0.04028 0.0266 0.04355 0.0688 0.0033 0.04221-0.03598 0.08347-0.03926 0.04126-0.11388 0.11924-0.0704 0.07765-0.27546 0.28039-0.20506 0.20274-0.3832 0.36942-0.46692 0.43961-0.6977 0.52971-0.07433 0.027-0.15452 0.03322-0.08019 0.0062-0.1276-0.0028-0.04741-0.0091-0.10555-0.04701-0.11694-0.08434-0.14184-0.40511-0.0069-0.08863 0.05501-0.27602 0.06189-0.18738 0.21495-0.45827 0.15728-0.27122 0.36944-0.54669 0.21637-0.2758 0.55515-0.5611 0.34299-0.28563 0.73995-0.47779 0.06167-0.02602 0.11232-0.02995 0.05065-0.0039 0.09646 0.03922 0.04548 0.03893 0.06597 0.08405l0.02438 0.04057q0.0075 0.09707-0.26658 0.44954-0.28157 0.36578-0.66251 0.70956-0.37705 0.33923-0.70611 0.58556-0.26837 0.20766-0.25265 0.41025 0.01015 0.13084 0.08191 0.12527zm0.31205-0.90315q0.10552-0.0082 0.59703-0.5686 0.49573-0.56074 0.49114-0.61983l-0.0049-0.0081-0.06913 0.03933q-0.20834 0.16054-0.54867 0.53513-0.33611 0.37426-0.46033 0.57922-0.01525 0.02241-0.01426 0.03508 6.55e-4 0.0084 0.0091 0.0078z"/>
        <path d="m70.768 47.275q0.61333-0.36931 1.3425-0.96897 0.03951 0.02772 0.0416 0.07 0.0021 0.04228-0.03832 0.08242-0.04041 0.04014-0.1172 0.11598-0.07256 0.07563-0.28326 0.27251-0.2107 0.19688-0.39346 0.35847-0.47913 0.42627-0.71236 0.50983-0.07506 0.02489-0.16386 0.02927-0.14376 0.0071-0.1548-0.21701-0.0023-0.04651 0.03118-0.14141 0.0377-0.09511 0.0413-0.108 0.0076-0.01733 0.01143-0.02599 0.0038-0.0087 0.0078-0.0131 0.0038-0.0087 0.0034-0.01712-4.16e-4 -0.0085-0.02579-0.0072-0.02114 1e-3 -0.1339 0.12104-0.11297 0.11577-0.18997 0.18738-0.07277 0.0714-0.17133 0.1356-0.09433 0.06399-0.15775 0.06712-0.16913 0.0083-0.17684-0.14811-0.0046-0.09302 0.05217-0.23145 0.13256-0.32018 0.41311-0.64766t0.40719-0.33796q0.04651-0.0023 0.08623 0.02966 0.03972 0.03195 0.04181 0.07423 0.0021 0.04228-0.07831 0.13101-0.0804 0.08873-0.2048 0.2305-0.12038 0.13733-0.17097 0.22883-0.04636 0.09129-0.0449 0.12089 0.0015 0.0296 0.03529 0.02793 0.03383-0.0017 0.11991-0.06101 0.23288-0.17678 0.52966-0.433 0.30101-0.25643 0.38438-0.37074 0.01739-0.07715 0.12309-0.08236 0.20295-0.01 0.2065 0.06187 0.0015 0.0296-0.18789 0.22966-0.56804 0.6002-0.56137 0.7355 1e-3 0.02114 0.01796 0.02031 0.02114-1e-3 0.07063-0.02891z"/>
        <path d="m73.281 45.628 0.21576-0.0089q0.419-9e-3 0.61201 0.10537 0.09375 0.02762 0.09475 0.07417 7.3e-4 0.03386-0.08364 0.04838-0.08014 0.01443-0.56991 0.08004-0.48562 0.06128-0.66743 0.07367-0.08032 6e-3 -0.36642 0.28736-0.28187 0.28131-0.53716 0.61709-0.25529 0.33578-0.25246 0.46698 4.57e-4 0.02116 0.02198 0.03764 0.02144 0.01224 0.05106 0.0116 0.03386-7.3e-4 0.10103-0.02758 0.79393-0.49136 1.5394-1.0706 0.03873 0.02881 0.03964 0.07113 9.13e-4 0.04232-0.0405 0.08556-0.0415 0.039-0.12451 0.11701-0.07877 0.07792-0.2988 0.28167-0.22003 0.20376-0.41557 0.36464-0.52397 0.4432-0.73413 0.51548-0.07573 0.0228-0.18154 0.02509-0.10158 0.0022-0.19274-0.1017-0.08693-0.10398-0.09085-0.28598-0.0039-0.18199 0.22146-0.52983 0.22962-0.34793 0.62817-0.71644 0.03745-0.03045 0.0369-0.05584-5.47e-4 -0.02539-0.08943-0.02348l-0.26646 0.01421q-0.5629 0.01214-0.58257-0.11447-0.13175-0.02257-0.13284-0.07335-3.65e-4 -0.01693 0.01656-0.01729 0.01684-0.0046 0.02954-0.0049 0.01261-0.0045 0.04214-0.0094t0.4641-0.07775q0.4388-0.07297 0.99655-0.12734l0.28364-0.39567q0.0243-0.05134 0.17666-0.05462 0.15236-0.0033 0.15373 0.0602 4.56e-4 0.02116-0.03222 0.07691l-0.10262 0.15041q-0.0197 0.06817-0.0232 0.10212 6.39e-4 0.02963 0.05989 0.02835z"/>
        <path d="m74.194 45.504q0.04233 9.1e-5 0.055 0.01705 0.05911 0.0721 0.05901 0.11866-9.2e-5 0.04233-0.02557 0.07615-0.02546 0.02958-0.06366 0.07183-0.03395 0.03803-0.14417 0.10975-0.10598 0.0675-0.20758 0.06728-0.07617-0.01287-0.076-0.0933 2.76e-4 -0.127 0.15293-0.2452 0.15267-0.12244 0.25003-0.12222zm-1.0196 1.6657q-0.034 0.05919-0.0341 0.10576-1.01e-4 0.04657 0.0507 0.04668 0.02963 6.4e-5 0.10166-0.02518 0.79253-0.41315 1.5515-0.97454 0.03804 0.02972 0.03794 0.07205-9.2e-5 0.04233-0.04251 0.08034-0.04242 0.03801-0.123 0.1098-0.07636 0.0718-0.29689 0.25759-0.22054 0.18579-0.41137 0.33778-0.5004 0.40108-0.73763 0.47253-0.07625 0.021-0.16514 0.02081-0.32597-7.07e-4 -0.32521-0.34784 2.94e-4 -0.13547 0.149-0.38491 0.14872-0.25368 0.30576-0.44384 0.15706-0.19439 0.2079-0.21545 0.0763-0.0464 0.1652-0.04621 0.0889 1.93e-4 0.16926 0.03423 0.02537 0.01275 0.02533 0.03392-4.5e-5 0.02117-0.04247 0.06341-0.03819 0.04225-0.12305 0.13097-0.08063 0.08873-0.2462 0.3085-0.16134 0.21555-0.21669 0.3636z"/>
        <path d="m74.223 47.419q0.13542 0.0036 0.33901-0.1689 0.20359-0.17248 0.21385-0.23997-0.04966-0.04366-0.106-0.15526-0.05199-0.11571-0.05623-0.11582-0.13443 0.11926-0.24024 0.27738-0.16797 0.26659-0.17065 0.36815-8.94e-4 0.03386 0.02026 0.03441zm0.94148-1.0126q-0.04232-0.0011-0.1812 0.12649-0.13466 0.12772-0.136 0.1785-3.36e-4 0.0127 0.02405 0.05145 0.02438 0.03876 0.03708 0.03909 0.07194 0.0019 0.1654-0.16926 0.09769-0.17104 0.09836-0.19644 7.83e-4 -0.02962-0.0077-0.02985zm-6e-3 0.54613q0.11849 0.0031 0.37197-0.13415 0.25771-0.13717 0.45195-0.27602l0.19435-0.14308q0.0373 0.03063 0.03619 0.07295-0.0011 0.04232-0.0401 0.07517-0.71537 0.62902-1.0751 0.61952-0.02539-6.71e-4 -0.07595-0.01048-0.49285 0.54174-0.83563 0.53268-0.22762-0.03989-0.28352-0.16842-0.03218-0.06437-0.02961-0.1617 0.0074-0.2793 0.33918-0.6559 0.33191-0.38083 0.82338-0.54994 0.04232 0.0011 0.06292 0.02284 0.02071 0.01749 0.03753 0.02217 0.01693 4.48e-4 0.04277-0.01581 0.03018-0.02038 0.07673-0.01915 0.04666-3e-3 0.09599 0.05336 0.06626 0.0568 0.06413 0.13721-0.0063 0.23698-0.25721 0.59878z"/>
        <path d="m76.372 46.285q0.03381 2e-3 0.10793 0.04017 0.07834 0.03846 0.0759 0.08072-0.0017 0.02958-0.02456 0.05795l-0.3424 0.42119q-0.05885 0.06444-0.05934 0.07289-4.89e-4 0.0085 0.0037 0.0087l0.02187-0.01146q0.51005-0.31396 0.84194-0.55342 0.06161-0.03884 0.09965-0.03664 0.04226 0.0024 0.05445 0.01163l0.11638 0.04066q0.04104 0.02358 0.03908 0.05739-2e-3 0.03381-0.02008 0.05396-0.08543 0.08411-0.19769 0.1921-0.10779 0.10401-0.16193 0.16025-0.05389 0.05201-0.12144 0.12019-0.06755 0.06818-0.09933 0.1045-0.02756 0.03657-0.0643 0.08533-0.0365 0.04453-0.05114 0.07761-0.03098 0.09574-0.03514 0.16758-0.0022 0.03804 0.04429 0.04073 0.05072 0.0029 0.18093-0.0489 0.13444-0.05159 0.31903-0.16388 0.18882-0.11205 0.49762-0.31892 0.31327-0.21086 0.54631-0.35427 0.03633 0.03178 0.03388 0.07405-0.0024 0.04226-0.04244 0.07387-0.14282 0.12319-0.3614 0.30984-0.21834 0.18243-0.66426 0.48738-0.4417 0.3052-0.61075 0.29542-0.32542-0.01883-0.30537-0.36538 0.0076-0.13101 0.11732-0.26884l0.19616-0.23884q0.02756-0.03657 0.0278-0.0408 4.9e-4 -0.0085-0.02609 0.01121-0.77083 0.57026-0.9798 0.66418-0.03503 0.01918-0.08575 0.01624-0.13947-0.0081-0.13213-0.13486 0.0024-0.04226 0.02553-0.07485 0.32937-0.26929 0.46668-0.44368 0.1073-0.09556 0.2277-0.27093 0.12462-0.17513 0.20754-0.28906 0.08715-0.11369 0.13364-0.111z"/>
        <path d="m77.954 47.491q0.14757 0.01329 0.28579-0.15278 0.14282-0.16991 0.20974-0.34665 0.06731-0.18096 0.07718-0.29058 0.0027-0.02951-0.04372-0.03369-0.04216-0.0038-0.10537 0.03726l-0.59069 0.37609q-0.06206 0.02841-0.13796 0.02158-0.07589-0.0068-0.07096-0.06165 0.0034-0.03795 0.01299-0.04984 0.01379-0.01151 0.06704-0.03647 0.33137-0.18693 0.91473-0.62319 0.07084-0.07863 0.12144-0.07407 0.0506 0.0046 0.16561 0.04892 0.1154 0.04015 0.1116 0.08231-0.02279 0.25298-0.08777 0.4554-0.06499 0.20242-0.12546 0.30748-0.05587 0.10123-0.05663 0.10966-7.6e-4 0.0084 0.0077 0.0092 0.0084 7.59e-4 0.03487-0.0096 0.33065-0.13174 0.8524-0.45028l0.10803-0.06678q0.03529 0.03293 0.03149 0.0751-0.0038 0.04216-0.04478 0.07247-0.0084-7.6e-4 -0.2352 0.15734-0.22255 0.15848-0.49873 0.34612-0.27158 0.18381-0.57808 0.33047-0.30649 0.14666-0.46671 0.13223-0.39633-0.0357-0.35342-0.51214 0.0034-0.03795 0.03559-0.0648 0.03677-0.03069 0.08736-0.02613-0.0019 0.02108 0.015 0.06936 0.0215 0.04444 0.04414 0.07623 0.06944 0.07851 0.21279 0.09142z"/>
      </g>
      <path d="m23.573 295.84c-1.0885 0.18596-2.1556 0.38051-3.1613 0.58562" fill="none" stroke="#7e7e7e" stroke-width=".51254px"/>
      <path d="m58.964 296.42c-1.0504-0.21466-2.1055-0.40564-3.1623-0.58562" fill="none" stroke="#7e7e7e" stroke-width=".51254px"/>
    </g>
  </g>
</svg>
