<?xml version="1.0" encoding="UTF-8" standalone="no"?>
<!-- Created with Inkscape (http://www.inkscape.org/) -->

<svg
   xmlns:dc="http://purl.org/dc/elements/1.1/"
   xmlns:cc="http://creativecommons.org/ns#"
   xmlns:rdf="http://www.w3.org/1999/02/22-rdf-syntax-ns#"
   xmlns:svg="http://www.w3.org/2000/svg"
   xmlns="http://www.w3.org/2000/svg"
   xmlns:sodipodi="http://sodipodi.sourceforge.net/DTD/sodipodi-0.dtd"
   xmlns:inkscape="http://www.inkscape.org/namespaces/inkscape"
   width="79.375mm"
   height="23.453772mm"
   viewBox="0 0 79.375 23.453772"
   version="1.1"
   id="svg4633"
   inkscape:version="0.92.1 r15371"
   sodipodi:docname="mckee-solutions-logo-orig.svg">
  <defs
     id="defs4627" />
  <sodipodi:namedview
     id="base"
     pagecolor="#ffffff"
     bordercolor="#666666"
     borderopacity="1.0"
     inkscape:pageopacity="0.0"
     inkscape:pageshadow="2"
     inkscape:zoom="0.35"
     inkscape:cx="-64.285719"
     inkscape:cy="560.00001"
     inkscape:document-units="mm"
     inkscape:current-layer="layer1"
     showgrid="false"
     fit-margin-top="0"
     fit-margin-left="0"
     fit-margin-right="0"
     fit-margin-bottom="0"
     inkscape:window-width="1920"
     inkscape:window-height="1027"
     inkscape:window-x="-8"
     inkscape:window-y="-8"
     inkscape:window-maximized="1" />
  <metadata
     id="metadata4630">
    <rdf:RDF>
      <cc:Work
         rdf:about="">
        <dc:format>image/svg+xml</dc:format>
        <dc:type
           rdf:resource="http://purl.org/dc/dcmitype/StillImage" />
        <dc:title></dc:title>
      </cc:Work>
    </rdf:RDF>
  </metadata>
  <g
     inkscape:label="Layer 1"
     inkscape:groupmode="layer"
     id="layer1"
     transform="translate(-1.199277e-6,-273.54623)">
    <g
       id="g5045"
       style="fill:#102a8a;fill-opacity:1;stroke:none;stroke-opacity:1"
       transform="matrix(1.9371522,0,0,1.9371522,-75.228888,131.58191)">
      <path
         inkscape:connector-curvature="0"
         id="path5035"
         style="font-style:normal;font-variant:normal;font-weight:normal;font-stretch:normal;font-size:medium;line-height:125%;font-family:Arvo;-inkscape-font-specification:Arvo;letter-spacing:0px;word-spacing:0px;fill:#102a8a;fill-opacity:1;stroke:none;stroke-width:0.26458332px;stroke-linecap:butt;stroke-linejoin:miter;stroke-opacity:1"
         d="m 40.631469,83.464935 0.718811,-0.1925 -1.541352,-5.755479 -0.71881,0.192502 -0.255333,-0.953422 2.396035,-0.641673 4.150921,5.891172 0.681081,-7.185212 2.271241,-0.608253 0.255332,0.953422 -0.713818,0.191165 1.541352,5.755478 0.713818,-0.19117 0.229933,0.85858 -2.455935,0.65772 -0.229933,-0.85858 0.808662,-0.21657 -1.556057,-5.810382 -0.859632,7.377472 -0.848595,0.22726 -4.470564,-5.966062 1.560067,5.825362 0.778712,-0.20855 0.229932,0.85858 -2.455935,0.65772 z" />
      <path
         inkscape:connector-curvature="0"
         id="path5037"
         style="font-style:normal;font-variant:normal;font-weight:normal;font-stretch:normal;font-size:medium;line-height:125%;font-family:Arvo;-inkscape-font-specification:Arvo;letter-spacing:0px;word-spacing:0px;fill:#102a8a;fill-opacity:1;stroke:none;stroke-width:0.26458332px;stroke-linecap:butt;stroke-linejoin:miter;stroke-opacity:1"
         d="m 54.533229,75.30601 q -0.257245,-0.362139 -0.610558,-0.506047 -0.348175,-0.144461 -0.784906,-0.09749 -0.33397,0.03592 -0.611915,0.206149 -0.277945,0.170227 -0.471247,0.450891 -0.188164,0.280112 -0.276824,0.663865 -0.08407,0.378062 -0.03544,0.830209 0.04808,0.44701 0.210078,0.7934 0.167136,0.34585 0.415702,0.57899 0.248014,0.22799 0.550664,0.33577 0.307236,0.10209 0.641206,0.0662 0.493249,-0.0531 0.832625,-0.32864 0.338824,-0.28073 0.504882,-0.76636 l 0.833255,0.30538 q -0.118771,0.34541 -0.316658,0.63177 -0.197888,0.28635 -0.465721,0.50227 -0.262695,0.21536 -0.596441,0.35001 -0.328055,0.13924 -0.708268,0.18013 -0.554905,0.0597 -1.049707,-0.095 -0.490217,-0.16036 -0.874807,-0.49841 -0.379452,-0.3386 -0.625376,-0.83709 -0.245923,-0.49849 -0.312241,-1.11505 -0.06632,-0.616568 0.07825,-1.15706 0.144565,-0.540492 0.454159,-0.948009 0.309041,-0.412654 0.753941,-0.673604 0.4449,-0.260949 0.979253,-0.318424 0.503524,-0.05416 0.969321,0.07245 0.470935,0.126059 0.848176,0.444107 l 0.539491,-0.05803 0.09506,0.883737 z" />
      <path
         inkscape:connector-curvature="0"
         id="path5039"
         style="font-style:normal;font-variant:normal;font-weight:normal;font-stretch:normal;font-size:medium;line-height:125%;font-family:Arvo;-inkscape-font-specification:Arvo;letter-spacing:0px;word-spacing:0px;fill:#102a8a;fill-opacity:1;stroke:none;stroke-width:0.26458332px;stroke-linecap:butt;stroke-linejoin:miter;stroke-opacity:1"
         d="m 62.945431,74.278337 0.01717,-0.893837 1.798008,0.03454 -0.01717,0.893837 -0.614836,-0.01181 -3.486157,2.822285 3.147781,3.223633 0.837004,0.0161 -0.01707,0.88867 -2.10801,-0.0405 0.01707,-0.88867 -3.050606,-3.170083 z m -5.159855,-0.993274 2.542011,0.04882 -0.01717,0.893838 -0.79567,-0.01528 -0.116208,6.050194 0.785336,0.0151 -0.01707,0.88867 -2.542011,-0.0488 0.01707,-0.88867 0.744003,0.0143 0.116208,-6.050195 -0.73367,-0.01409 z" />
      <path
         inkscape:connector-curvature="0"
         id="path5041"
         style="font-style:normal;font-variant:normal;font-weight:normal;font-stretch:normal;font-size:medium;line-height:125%;font-family:Arvo;-inkscape-font-specification:Arvo;letter-spacing:0px;word-spacing:0px;fill:#102a8a;fill-opacity:1;stroke:none;stroke-width:0.26458332px;stroke-linecap:butt;stroke-linejoin:miter;stroke-opacity:1"
         d="m 66.917271,73.678887 5.546624,0.854506 -0.337553,2.191069 -1.047015,-0.161301 0.201431,-1.307492 -2.763098,-0.425679 -0.381616,2.477084 2.323862,0.358011 -0.135336,0.878471 -2.323862,-0.358011 -0.404434,2.6252 2.763097,0.42568 0.20143,-1.30749 1.047015,0.1613 -0.336766,2.18596 -5.546625,-0.85451 0.135336,-0.87847 0.735464,0.11331 0.921387,-5.980755 -0.735464,-0.113305 z" />
      <path
         inkscape:connector-curvature="0"
         id="path5043"
         style="font-style:normal;font-variant:normal;font-weight:normal;font-stretch:normal;font-size:medium;line-height:125%;font-family:Arvo;-inkscape-font-specification:Arvo;letter-spacing:0px;word-spacing:0px;fill:#102a8a;fill-opacity:1;stroke:none;stroke-width:0.26458332px;stroke-linecap:butt;stroke-linejoin:miter;stroke-opacity:1"
         d="m 74.406026,74.979761 5.403857,1.514449 -0.598249,2.134675 -1.020065,-0.285879 0.356997,-1.273837 -2.691976,-0.754436 -0.676343,2.413322 2.264047,0.63451 -0.239857,0.85586 -2.264047,-0.63451 -0.716784,2.55763 2.691977,0.75443 0.356997,-1.27383 1.020065,0.28587 -0.596855,2.1297 -5.403856,-1.51445 0.239857,-0.85586 0.716534,0.20081 1.632983,-5.826808 -0.716534,-0.20081 z" />
    </g>
    <g
       aria-label="solutions"
       style="font-style:normal;font-weight:normal;font-size:10.58333302px;line-height:125%;font-family:sans-serif;letter-spacing:0px;word-spacing:0px;fill:#7e7e7e;fill-opacity:1;stroke:none;stroke-width:0.26458332px;stroke-linecap:butt;stroke-linejoin:miter;stroke-opacity:1"
       id="g5065"
       transform="matrix(1.9371522,0,0,1.9371522,-100.12359,203.70335)">
      <path
         d="m 65.79329,47.79042 q 0.146926,-0.01913 0.245704,-0.211299 0.10243,-0.19691 0.129297,-0.383979 0.02632,-0.191267 0.01211,-0.300412 -0.0038,-0.02939 -0.05,-0.02337 -0.04198,0.0055 -0.09474,0.0593 l -0.494709,0.495602 q -0.0544,0.04124 -0.129959,0.05108 -0.07556,0.0098 -0.08267,-0.04473 -0.0049,-0.03778 0.0018,-0.05147 0.01095,-0.01423 0.0575,-0.05018 0.282763,-0.254546 0.757225,-0.807278 0.05203,-0.09216 0.102409,-0.09872 0.05038,-0.0066 0.172289,0.01172 0.121367,0.01408 0.126834,0.05606 0.0328,0.251873 0.01341,0.463583 -0.01939,0.21171 -0.05555,0.327415 -0.03251,0.110961 -0.03142,0.119357 0.0011,0.0084 0.0095,0.0073 0.0084,-0.0011 0.03194,-0.01697 0.294068,-0.20052 0.734009,-0.624953 l 0.09091,-0.08868 q 0.04161,0.02446 0.04707,0.06644 0.0055,0.04198 -0.02794,0.08048 -0.0084,0.0011 -0.19533,0.204738 -0.182736,0.203098 -0.411473,0.44634 -0.225086,0.238497 -0.492327,0.448331 -0.26724,0.209834 -0.42676,0.230608 -0.394601,0.05139 -0.456376,-0.422974 -0.0049,-0.03778 0.02064,-0.07099 0.02921,-0.03796 0.07958,-0.04452 0.0027,0.02099 0.02974,0.06443 0.03065,0.0387 0.05967,0.0648 0.08486,0.06152 0.227584,0.04294 z"
         style="font-style:normal;font-variant:normal;font-weight:normal;font-stretch:normal;font-size:4.23333311px;font-family:'Mr Dafoe';-inkscape-font-specification:'Mr Dafoe';text-align:center;text-anchor:middle;fill:#7e7e7e;fill-opacity:1;stroke-width:0.26458332px"
         id="path5047"
         inkscape:connector-curvature="0" />
      <path
         d="m 67.125044,47.748672 q 0.134754,-0.01388 0.314455,-0.211132 0.179701,-0.197252 0.181183,-0.265496 -0.05487,-0.03691 -0.125104,-0.14032 -0.06645,-0.108059 -0.07067,-0.107626 -0.117963,0.135568 -0.202545,0.305998 -0.132259,0.285991 -0.121848,0.387056 0.0035,0.03369 0.02452,0.03152 z m 0.803313,-1.125403 q -0.04211,0.0043 -0.163417,0.148761 -0.117096,0.14399 -0.111891,0.194523 0.0013,0.01263 0.03047,0.04793 0.02917,0.0353 0.0418,0.034 0.07159,-0.0074 0.142236,-0.189136 0.07486,-0.182197 0.07226,-0.207463 -0.003,-0.02948 -0.01146,-0.02861 z m 0.06438,0.542358 q 0.117909,-0.01215 0.351613,-0.180914 0.237915,-0.169202 0.412664,-0.331897 l 0.174315,-0.166907 q 0.04094,0.02557 0.04527,0.06768 0.0043,0.04211 -0.03009,0.0797 -0.628456,0.715863 -0.986395,0.752734 -0.02527,0.0026 -0.07667,-6.14e-4 -0.419024,0.600664 -0.76012,0.635799 -0.230867,-0.01026 -0.302834,-0.130523 -0.04019,-0.0597 -0.05017,-0.15655 -0.02863,-0.277929 0.251937,-0.694101 0.280133,-0.420384 0.745752,-0.651343 0.04211,-0.0043 0.06533,0.01455 0.02279,0.01467 0.04007,0.01715 0.01684,-0.0017 0.04037,-0.02118 0.02731,-0.02409 0.07363,-0.02886 0.04589,-0.009 0.10206,0.04056 0.07302,0.0478 0.08126,0.127813 0.02429,0.235819 -0.178,0.626905 z"
         style="font-style:normal;font-variant:normal;font-weight:normal;font-stretch:normal;font-size:4.23333311px;font-family:'Mr Dafoe';-inkscape-font-specification:'Mr Dafoe';text-align:center;text-anchor:middle;fill:#7e7e7e;fill-opacity:1;stroke-width:0.26458332px"
         id="path5049"
         inkscape:connector-curvature="0" />
      <path
         d="m 68.829875,47.493877 q 0.139281,-0.01081 0.529356,-0.291602 0.394297,-0.28112 0.712621,-0.556343 l 0.322545,-0.275551 q 0.04028,0.0266 0.04355,0.0688 0.0033,0.04221 -0.03598,0.08347 -0.03926,0.04126 -0.113882,0.119237 -0.0704,0.07765 -0.275463,0.280389 -0.20506,0.202741 -0.383196,0.369425 -0.466916,0.439614 -0.697704,0.529709 -0.07433,0.027 -0.154525,0.03322 -0.08019,0.0062 -0.127602,-0.0028 -0.04741,-0.0091 -0.105554,-0.04701 -0.116943,-0.08434 -0.141839,-0.405106 -0.0069,-0.08863 0.05501,-0.276017 0.06189,-0.187384 0.214951,-0.458273 0.157285,-0.271217 0.369438,-0.546693 0.216374,-0.275803 0.555147,-0.561105 0.342993,-0.285631 0.739948,-0.477789 0.06167,-0.02602 0.112319,-0.02995 0.05065,-0.0039 0.09646,0.03922 0.04548,0.03893 0.06597,0.08405 l 0.02438,0.04057 q 0.0075,0.09707 -0.266581,0.449542 -0.281573,0.365784 -0.662514,0.709559 -0.377049,0.339226 -0.706107,0.58556 -0.26837,0.207655 -0.252647,0.410246 0.01015,0.13084 0.08191,0.125271 z m 0.31205,-0.903154 q 0.105516,-0.0082 0.597026,-0.568602 0.49573,-0.56074 0.491144,-0.619829 l -0.0049,-0.0081 -0.06913,0.03933 q -0.208336,0.160535 -0.548671,0.535127 -0.336114,0.374263 -0.460327,0.579222 -0.01525,0.02241 -0.01426,0.03508 6.55e-4,0.0084 0.0091,0.0078 z"
         style="font-style:normal;font-variant:normal;font-weight:normal;font-stretch:normal;font-size:4.23333311px;font-family:'Mr Dafoe';-inkscape-font-specification:'Mr Dafoe';text-align:center;text-anchor:middle;fill:#7e7e7e;fill-opacity:1;stroke-width:0.26458332px"
         id="path5051"
         inkscape:connector-curvature="0" />
      <path
         d="m 70.768488,47.275219 q 0.613327,-0.369312 1.342453,-0.968972 0.03951,0.02772 0.0416,0.07 0.0021,0.04228 -0.03832,0.08242 -0.04041,0.04014 -0.117198,0.115977 -0.07256,0.07563 -0.28326,0.272511 -0.210695,0.196879 -0.393461,0.358473 -0.479126,0.426274 -0.712362,0.509826 -0.07506,0.02489 -0.163858,0.02927 -0.143758,0.0071 -0.154805,-0.217007 -0.0023,-0.04651 0.03118,-0.141407 0.0377,-0.09511 0.0413,-0.107998 0.0076,-0.01733 0.01143,-0.02599 0.0038,-0.0087 0.0078,-0.0131 0.0038,-0.0087 0.0034,-0.01712 -4.16e-4,-0.0085 -0.02579,-0.0072 -0.02114,10e-4 -0.133903,0.12104 -0.11297,0.115769 -0.189971,0.187381 -0.07277,0.0714 -0.171331,0.1356 -0.09433,0.06399 -0.157754,0.06712 -0.169128,0.0083 -0.17684,-0.148106 -0.0046,-0.09302 0.05217,-0.231449 0.132563,-0.320182 0.413113,-0.647659 0.28055,-0.327477 0.407188,-0.337958 0.04651,-0.0023 0.08623,0.02966 0.03972,0.03195 0.04181,0.07423 0.0021,0.04228 -0.07831,0.131014 -0.0804,0.08873 -0.2048,0.230496 -0.120385,0.137328 -0.170974,0.228829 -0.04636,0.09129 -0.0449,0.120891 0.0015,0.0296 0.03529,0.02793 0.03383,-0.0017 0.119908,-0.06101 0.232879,-0.17678 0.529657,-0.433003 0.301006,-0.256431 0.384379,-0.370742 0.01739,-0.07715 0.123094,-0.08236 0.202953,-0.01 0.206497,0.06187 0.0015,0.0296 -0.187887,0.229663 -0.568038,0.600196 -0.561368,0.735498 0.001,0.02114 0.01796,0.02031 0.02114,-10e-4 0.07063,-0.02891 z"
         style="font-style:normal;font-variant:normal;font-weight:normal;font-stretch:normal;font-size:4.23333311px;font-family:'Mr Dafoe';-inkscape-font-specification:'Mr Dafoe';text-align:center;text-anchor:middle;fill:#7e7e7e;fill-opacity:1;stroke-width:0.26458332px"
         id="path5053"
         inkscape:connector-curvature="0" />
      <path
         d="m 73.280935,45.627723 0.215758,-0.0089 q 0.419003,-0.009 0.612013,0.105366 0.09375,0.02762 0.09475,0.07417 7.3e-4,0.03386 -0.08364,0.04838 -0.08014,0.01443 -0.569907,0.08004 -0.485625,0.06128 -0.667434,0.07367 -0.08032,0.006 -0.366424,0.287364 -0.281869,0.281308 -0.537158,0.617088 -0.255288,0.335781 -0.25246,0.466984 4.57e-4,0.02116 0.02198,0.03764 0.02144,0.01224 0.05106,0.0116 0.03386,-7.3e-4 0.101029,-0.02758 0.793927,-0.49136 1.539382,-1.070596 0.03873,0.02881 0.03964,0.07113 9.13e-4,0.04232 -0.0405,0.08556 -0.0415,0.039 -0.124507,0.11701 -0.07877,0.07792 -0.298798,0.281673 -0.220026,0.203756 -0.415571,0.364642 -0.523969,0.443196 -0.734126,0.515476 -0.07573,0.0228 -0.181535,0.02509 -0.101576,0.0022 -0.192737,-0.101703 -0.08693,-0.103984 -0.09085,-0.285975 -0.0039,-0.181991 0.221465,-0.52983 0.229621,-0.34793 0.628171,-0.716439 0.03745,-0.03045 0.0369,-0.05584 -5.47e-4,-0.02539 -0.08943,-0.02348 l -0.266456,0.01421 q -0.562902,0.01214 -0.582569,-0.11447 -0.13175,-0.02257 -0.132845,-0.07335 -3.65e-4,-0.01693 0.01656,-0.01729 0.01684,-0.0046 0.02954,-0.0049 0.01261,-0.0045 0.04214,-0.0094 0.02953,-0.0049 0.464099,-0.07775 0.438795,-0.07297 0.996553,-0.127343 l 0.283638,-0.395672 q 0.0243,-0.05134 0.176663,-0.05462 0.152365,-0.0033 0.153734,0.0602 4.56e-4,0.02116 -0.03222,0.07691 l -0.102615,0.150413 q -0.0197,0.06817 -0.0232,0.102124 6.39e-4,0.02963 0.05989,0.02835 z"
         style="font-style:normal;font-variant:normal;font-weight:normal;font-stretch:normal;font-size:4.23333311px;font-family:'Mr Dafoe';-inkscape-font-specification:'Mr Dafoe';text-align:center;text-anchor:middle;fill:#7e7e7e;fill-opacity:1;stroke-width:0.26458332px"
         id="path5055"
         inkscape:connector-curvature="0" />
      <path
         d="m 74.193562,45.50447 q 0.04233,9.1e-5 0.055,0.01705 0.05911,0.0721 0.05901,0.118662 -9.2e-5,0.04233 -0.02557,0.07615 -0.02546,0.02958 -0.06366,0.07183 -0.03395,0.03803 -0.144172,0.109754 -0.10598,0.0675 -0.20758,0.06728 -0.07617,-0.01287 -0.076,-0.0933 2.76e-4,-0.127 0.152933,-0.245202 0.152666,-0.122436 0.250032,-0.122224 z m -1.019616,1.665725 q -0.034,0.05919 -0.0341,0.105759 -1.01e-4,0.04657 0.0507,0.04668 0.02963,6.4e-5 0.101655,-0.02518 0.792532,-0.413148 1.551518,-0.974536 0.03804,0.02972 0.03794,0.07205 -9.2e-5,0.04233 -0.04251,0.08034 -0.04242,0.03801 -0.123005,0.1098 -0.07636,0.0718 -0.296893,0.25759 -0.220537,0.185788 -0.411367,0.337775 -0.500405,0.401082 -0.737627,0.472534 -0.07625,0.021 -0.165145,0.02081 -0.325966,-7.07e-4 -0.325213,-0.34784 2.94e-4,-0.135466 0.149002,-0.384911 0.148717,-0.253678 0.305764,-0.443837 0.157055,-0.194393 0.207901,-0.21545 0.0763,-0.0464 0.165201,-0.04621 0.0889,1.93e-4 0.169259,0.03423 0.02537,0.01275 0.02533,0.03392 -4.5e-5,0.02117 -0.04247,0.06341 -0.03819,0.04225 -0.123051,0.130966 -0.08063,0.08873 -0.246203,0.3085 -0.161335,0.215551 -0.216689,0.363598 z"
         style="font-style:normal;font-variant:normal;font-weight:normal;font-stretch:normal;font-size:4.23333311px;font-family:'Mr Dafoe';-inkscape-font-specification:'Mr Dafoe';text-align:center;text-anchor:middle;fill:#7e7e7e;fill-opacity:1;stroke-width:0.26458332px"
         id="path5057"
         inkscape:connector-curvature="0" />
      <path
         d="m 74.22264,47.418989 q 0.135419,0.0036 0.339014,-0.168903 0.203594,-0.172481 0.213847,-0.239967 -0.04966,-0.04366 -0.106002,-0.155255 -0.05199,-0.115714 -0.05623,-0.115825 -0.134431,0.119256 -0.240245,0.277383 -0.167968,0.266589 -0.170653,0.368153 -8.94e-4,0.03386 0.02026,0.03441 z m 0.941481,-1.012647 q -0.04232,-0.0011 -0.181204,0.12649 -0.134655,0.127721 -0.135997,0.178503 -3.36e-4,0.0127 0.02405,0.05145 0.02438,0.03876 0.03708,0.03909 0.07194,0.0019 0.165396,-0.169256 0.09769,-0.171045 0.09836,-0.196437 7.83e-4,-0.02962 -0.0077,-0.02985 z m -0.006,0.546133 q 0.118492,0.0031 0.371974,-0.134153 0.257714,-0.137173 0.45195,-0.276023 l 0.194348,-0.143082 q 0.0373,0.03063 0.03619,0.07295 -0.0011,0.04232 -0.0401,0.07517 -0.715367,0.629021 -1.075075,0.619515 -0.02539,-6.71e-4 -0.07595,-0.01048 -0.49285,0.541735 -0.835631,0.532676 -0.227625,-0.03989 -0.283516,-0.168416 -0.03218,-0.06437 -0.02961,-0.161705 0.0074,-0.279302 0.33918,-0.655901 0.33191,-0.380831 0.823383,-0.54994 0.04232,0.0011 0.06292,0.02284 0.02071,0.01749 0.03753,0.02217 0.01693,4.48e-4 0.04277,-0.01581 0.03018,-0.02038 0.07673,-0.01915 0.04666,-0.003 0.09599,0.05336 0.06626,0.0568 0.06413,0.137208 -0.0063,0.236984 -0.257209,0.598781 z"
         style="font-style:normal;font-variant:normal;font-weight:normal;font-stretch:normal;font-size:4.23333311px;font-family:'Mr Dafoe';-inkscape-font-specification:'Mr Dafoe';text-align:center;text-anchor:middle;fill:#7e7e7e;fill-opacity:1;stroke-width:0.26458332px"
         id="path5059"
         inkscape:connector-curvature="0" />
      <path
         d="m 76.371949,46.284888 q 0.03381,0.002 0.107927,0.04017 0.07834,0.03846 0.0759,0.08072 -0.0017,0.02958 -0.02456,0.05795 l -0.342401,0.421192 q -0.05885,0.06444 -0.05934,0.07289 -4.89e-4,0.0085 0.0037,0.0087 l 0.02187,-0.01146 q 0.510053,-0.313962 0.841939,-0.553425 0.06161,-0.03884 0.09965,-0.03664 0.04226,0.0024 0.05445,0.01163 l 0.116379,0.04066 q 0.04104,0.02358 0.03908,0.05739 -0.002,0.03381 -0.02008,0.05396 -0.08543,0.08411 -0.197693,0.192102 -0.107788,0.104014 -0.161927,0.160247 -0.05389,0.05201 -0.121445,0.120186 -0.06755,0.06818 -0.09933,0.104503 -0.02756,0.03657 -0.0643,0.08533 -0.0365,0.04453 -0.05114,0.07761 -0.03098,0.09574 -0.03514,0.167584 -0.0022,0.03804 0.04429,0.04073 0.05072,0.0029 0.180927,-0.0489 0.134437,-0.05159 0.319032,-0.163879 0.188821,-0.112047 0.497619,-0.318922 0.31327,-0.210856 0.546309,-0.354268 0.03633,0.03178 0.03388,0.07405 -0.0024,0.04226 -0.04244,0.07387 -0.142821,0.123189 -0.361401,0.309842 -0.218335,0.182426 -0.664262,0.487377 -0.441699,0.305196 -0.61075,0.295415 -0.325422,-0.01883 -0.305371,-0.365383 0.0076,-0.131014 0.117325,-0.268838 l 0.196157,-0.238835 q 0.02756,-0.03657 0.0278,-0.0408 4.9e-4,-0.0085 -0.02609,0.01121 -0.770827,0.57026 -0.979801,0.664179 -0.03503,0.01918 -0.08575,0.01624 -0.139466,-0.0081 -0.13213,-0.134858 0.0024,-0.04226 0.02553,-0.07485 0.329372,-0.26929 0.466675,-0.443684 0.107299,-0.09556 0.227697,-0.270933 0.124624,-0.175127 0.207543,-0.289061 0.08715,-0.113689 0.133635,-0.111 z"
         style="font-style:normal;font-variant:normal;font-weight:normal;font-stretch:normal;font-size:4.23333311px;font-family:'Mr Dafoe';-inkscape-font-specification:'Mr Dafoe';text-align:center;text-anchor:middle;fill:#7e7e7e;fill-opacity:1;stroke-width:0.26458332px"
         id="path5061"
         inkscape:connector-curvature="0" />
      <path
         d="m 77.954107,47.491438 q 0.14757,0.01329 0.285791,-0.152778 0.142818,-0.169907 0.209743,-0.346649 0.06731,-0.180958 0.07718,-0.290581 0.0027,-0.02951 -0.04372,-0.03369 -0.04216,-0.0038 -0.105368,0.03726 l -0.590687,0.376094 q -0.06206,0.02841 -0.137958,0.02158 -0.07589,-0.0068 -0.07096,-0.06165 0.0034,-0.03795 0.01299,-0.04984 0.01379,-0.01151 0.06704,-0.03647 0.331372,-0.186927 0.914726,-0.623188 0.07084,-0.07863 0.121435,-0.07407 0.0506,0.0046 0.165612,0.04892 0.115397,0.04015 0.1116,0.08231 -0.02279,0.252976 -0.08777,0.455396 -0.06499,0.202419 -0.125457,0.307485 -0.05587,0.101229 -0.05663,0.109662 -7.6e-4,0.0084 0.0077,0.0092 0.0084,7.59e-4 0.03487,-0.0096 0.330651,-0.131736 0.852397,-0.450282 l 0.108027,-0.06678 q 0.03529,0.03293 0.03149,0.0751 -0.0038,0.04216 -0.04478,0.07247 -0.0084,-7.6e-4 -0.235196,0.157335 -0.222547,0.158475 -0.498727,0.346123 -0.271584,0.183811 -0.578077,0.330474 -0.306492,0.146664 -0.466711,0.132233 -0.396328,-0.0357 -0.353415,-0.512136 0.0034,-0.03795 0.03559,-0.0648 0.03677,-0.03069 0.08736,-0.02613 -0.0019,0.02108 0.015,0.06936 0.0215,0.04444 0.04414,0.07623 0.06944,0.07851 0.21279,0.09142 z"
         style="font-style:normal;font-variant:normal;font-weight:normal;font-stretch:normal;font-size:4.23333311px;font-family:'Mr Dafoe';-inkscape-font-specification:'Mr Dafoe';text-align:center;text-anchor:middle;fill:#7e7e7e;fill-opacity:1;stroke-width:0.26458332px"
         id="path5063"
         inkscape:connector-curvature="0" />
    </g>
    <path
       style="fill:none;fill-rule:evenodd;stroke:#7e7e7e;stroke-width:0.51253814px;stroke-linecap:butt;stroke-linejoin:miter;stroke-opacity:1"
       d="m 23.572854,295.83638 c -1.088497,0.18596 -2.155603,0.38051 -3.16132,0.58562"
       id="path5067"
       inkscape:connector-curvature="0" />
    <path
       style="fill:none;fill-rule:evenodd;stroke:#7e7e7e;stroke-width:0.51253814px;stroke-linecap:butt;stroke-linejoin:miter;stroke-opacity:1"
       d="m 58.964016,296.422 c -1.050368,-0.21466 -2.105466,-0.40564 -3.16232,-0.58562"
       id="path5069"
       inkscape:connector-curvature="0" />
  </g>
</svg>
